<svg width="1327" height="568" viewBox="0 0 1327 568" fill="none" xmlns="http://www.w3.org/2000/svg">
<rect x="0.226074" y="4.12451" width="1326.17" height="563.588" rx="25" fill="#303841"/>
<path fill-rule="evenodd" clip-rule="evenodd" d="M1326.39 46.861L1326.39 25.1179C1326.39 11.3108 1315.2 0.11792 1301.39 0.11792H25.226C11.4414 0.11792 0.262524 11.2743 0.226074 25.0503V46.861H1326.39Z" fill="#2B2C2F"/>
<path d="M567.569 143.492C565.491 147.054 563.937 150.609 562.905 154.156C561.89 157.687 561.382 161.249 561.382 164.843C561.382 168.421 561.89 171.984 562.905 175.531C563.937 179.078 565.491 182.648 567.569 186.242H563.819C561.46 182.523 559.702 178.906 558.546 175.39C557.39 171.859 556.812 168.343 556.812 164.843C556.812 161.359 557.39 157.851 558.546 154.32C559.702 150.788 561.46 147.179 563.819 143.492H567.569ZM584.608 143.492H588.358C590.718 147.179 592.476 150.788 593.632 154.32C594.788 157.851 595.366 161.359 595.366 164.843C595.366 168.359 594.788 171.882 593.632 175.413C592.476 178.945 590.718 182.554 588.358 186.242H584.608C586.687 182.617 588.233 179.031 589.249 175.484C590.28 171.937 590.796 168.39 590.796 164.843C590.796 161.281 590.28 157.726 589.249 154.179C588.233 150.632 586.687 147.07 584.608 143.492ZM615.429 153.687H622.741V162.148H615.429V153.687ZM615.429 171.382H622.741V179.913H615.429V171.382ZM275.163 226.421C275.163 228.359 275.515 229.82 276.218 230.804C276.937 231.788 277.991 232.281 279.382 232.281H284.421V235.913H278.96C276.382 235.913 274.382 235.093 272.96 233.453C271.554 231.796 270.851 229.453 270.851 226.421V202.679H263.937V199.304H275.163V226.421ZM301.671 212.687C299.483 212.687 297.827 213.538 296.702 215.242C295.577 216.945 295.015 219.468 295.015 222.812C295.015 226.14 295.577 228.663 296.702 230.382C297.827 232.085 299.483 232.937 301.671 232.937C303.874 232.937 305.538 232.085 306.663 230.382C307.788 228.663 308.351 226.14 308.351 222.812C308.351 219.468 307.788 216.945 306.663 215.242C305.538 213.538 303.874 212.687 301.671 212.687ZM301.671 209.031C305.312 209.031 308.093 210.21 310.015 212.57C311.952 214.929 312.921 218.343 312.921 222.812C312.921 227.296 311.96 230.718 310.038 233.078C308.116 235.421 305.327 236.593 301.671 236.593C298.03 236.593 295.249 235.421 293.327 233.078C291.405 230.718 290.444 227.296 290.444 222.812C290.444 218.343 291.405 214.929 293.327 212.57C295.249 210.21 298.03 209.031 301.671 209.031ZM316.155 209.663H320.421L324.991 230.874L328.741 217.328H332.421L336.218 230.874L340.788 209.663H345.054L338.913 235.913H334.788L330.593 221.523L326.421 235.913H322.296L316.155 209.663ZM373.765 240.367V244.351H345.077V240.367H373.765ZM382.788 232.609V245.898H378.452V209.663H382.788V213.015C383.507 211.718 384.46 210.734 385.647 210.062C386.851 209.374 388.233 209.031 389.796 209.031C392.968 209.031 395.452 210.257 397.249 212.71C399.062 215.163 399.968 218.562 399.968 222.906C399.968 227.171 399.062 230.523 397.249 232.96C395.437 235.382 392.952 236.593 389.796 236.593C388.202 236.593 386.804 236.257 385.601 235.585C384.413 234.898 383.476 233.906 382.788 232.609ZM395.444 222.812C395.444 219.468 394.913 216.945 393.851 215.242C392.804 213.538 391.241 212.687 389.163 212.687C387.069 212.687 385.483 213.546 384.405 215.265C383.327 216.968 382.788 219.484 382.788 222.812C382.788 226.124 383.327 228.64 384.405 230.359C385.483 232.078 387.069 232.937 389.163 232.937C391.241 232.937 392.804 232.085 393.851 230.382C394.913 228.679 395.444 226.156 395.444 222.812ZM429.991 215.078C429.069 214.359 428.132 213.835 427.179 213.507C426.226 213.179 425.179 213.015 424.038 213.015C421.351 213.015 419.296 213.859 417.874 215.546C416.452 217.234 415.741 219.671 415.741 222.859V235.913H411.405V209.663H415.741V214.796C416.46 212.937 417.562 211.515 419.046 210.531C420.546 209.531 422.319 209.031 424.366 209.031C425.429 209.031 426.421 209.163 427.343 209.429C428.265 209.695 429.147 210.109 429.991 210.671V215.078ZM439.249 209.757H450.288V232.562H458.843V235.913H437.421V232.562H445.976V213.109H439.249V209.757ZM445.976 199.562H450.288V204.999H445.976V199.562ZM485.632 234.578C484.476 235.249 483.28 235.749 482.046 236.078C480.827 236.421 479.577 236.593 478.296 236.593C474.233 236.593 471.054 235.374 468.757 232.937C466.476 230.499 465.335 227.124 465.335 222.812C465.335 218.499 466.476 215.124 468.757 212.687C471.054 210.249 474.233 209.031 478.296 209.031C479.562 209.031 480.796 209.195 481.999 209.523C483.202 209.851 484.413 210.359 485.632 211.046V215.57C484.491 214.554 483.343 213.82 482.187 213.367C481.046 212.913 479.749 212.687 478.296 212.687C475.593 212.687 473.515 213.562 472.062 215.312C470.608 217.062 469.882 219.562 469.882 222.812C469.882 226.046 470.608 228.546 472.062 230.312C473.53 232.062 475.608 232.937 478.296 232.937C479.796 232.937 481.14 232.71 482.327 232.257C483.515 231.788 484.616 231.07 485.632 230.101V234.578ZM515.937 220.632V222.742H497.257V222.882C497.132 226.46 497.812 229.031 499.296 230.593C500.796 232.156 502.905 232.937 505.624 232.937C506.999 232.937 508.437 232.718 509.937 232.281C511.437 231.843 513.038 231.179 514.741 230.288V234.578C513.101 235.249 511.515 235.749 509.983 236.078C508.468 236.421 506.999 236.593 505.577 236.593C501.499 236.593 498.312 235.374 496.015 232.937C493.718 230.484 492.569 227.109 492.569 222.812C492.569 218.624 493.694 215.281 495.944 212.781C498.194 210.281 501.194 209.031 504.944 209.031C508.288 209.031 510.921 210.163 512.843 212.429C514.78 214.695 515.812 217.429 515.937 220.632ZM511.624 219.367C511.437 217.554 510.772 215.992 509.632 214.679C508.507 213.351 506.882 212.687 504.757 212.687C502.679 212.687 500.968 213.374 499.624 214.749C498.28 216.124 497.546 217.671 497.421 219.39L511.624 219.367ZM448.694 282.421C448.694 284.359 449.046 285.82 449.749 286.804C450.468 287.788 451.522 288.281 452.913 288.281H457.952V291.913H452.491C449.913 291.913 447.913 291.093 446.491 289.453C445.085 287.796 444.382 285.453 444.382 282.421V258.679H437.468V255.304H448.694V282.421ZM475.202 268.687C473.015 268.687 471.358 269.538 470.233 271.242C469.108 272.945 468.546 275.468 468.546 278.812C468.546 282.14 469.108 284.663 470.233 286.382C471.358 288.085 473.015 288.937 475.202 288.937C477.405 288.937 479.069 288.085 480.194 286.382C481.319 284.663 481.882 282.14 481.882 278.812C481.882 275.468 481.319 272.945 480.194 271.242C479.069 269.538 477.405 268.687 475.202 268.687ZM475.202 265.031C478.843 265.031 481.624 266.21 483.546 268.57C485.483 270.929 486.452 274.343 486.452 278.812C486.452 283.296 485.491 286.718 483.569 289.078C481.647 291.421 478.858 292.593 475.202 292.593C471.562 292.593 468.78 291.421 466.858 289.078C464.937 286.718 463.976 283.296 463.976 278.812C463.976 274.343 464.937 270.929 466.858 268.57C468.78 266.21 471.562 265.031 475.202 265.031ZM489.687 265.663H493.952L498.522 286.874L502.272 273.328H505.952L509.749 286.874L514.319 265.663H518.585L512.444 291.913H508.319L504.124 277.523L499.952 291.913H495.827L489.687 265.663ZM547.296 296.367V300.351H518.608V296.367H547.296ZM556.319 288.609V301.898H551.983V265.663H556.319V269.015C557.038 267.718 557.991 266.734 559.179 266.062C560.382 265.374 561.765 265.031 563.327 265.031C566.499 265.031 568.983 266.257 570.78 268.71C572.593 271.163 573.499 274.562 573.499 278.906C573.499 283.171 572.593 286.523 570.78 288.96C568.968 291.382 566.483 292.593 563.327 292.593C561.733 292.593 560.335 292.257 559.132 291.585C557.944 290.898 557.007 289.906 556.319 288.609ZM568.976 278.812C568.976 275.468 568.444 272.945 567.382 271.242C566.335 269.538 564.772 268.687 562.694 268.687C560.601 268.687 559.015 269.546 557.937 271.265C556.858 272.968 556.319 275.484 556.319 278.812C556.319 282.124 556.858 284.64 557.937 286.359C559.015 288.078 560.601 288.937 562.694 288.937C564.772 288.937 566.335 288.085 567.382 286.382C568.444 284.679 568.976 282.156 568.976 278.812ZM603.522 271.078C602.601 270.359 601.663 269.835 600.71 269.507C599.757 269.179 598.71 269.015 597.569 269.015C594.882 269.015 592.827 269.859 591.405 271.546C589.983 273.234 589.272 275.671 589.272 278.859V291.913H584.937V265.663H589.272V270.796C589.991 268.937 591.093 267.515 592.577 266.531C594.077 265.531 595.851 265.031 597.897 265.031C598.96 265.031 599.952 265.163 600.874 265.429C601.796 265.695 602.679 266.109 603.522 266.671V271.078ZM612.78 265.757H623.819V288.562H632.374V291.913H610.952V288.562H619.507V269.109H612.78V265.757ZM619.507 255.562H623.819V260.999H619.507V255.562ZM659.163 290.578C658.007 291.249 656.812 291.749 655.577 292.078C654.358 292.421 653.108 292.593 651.827 292.593C647.765 292.593 644.585 291.374 642.288 288.937C640.007 286.499 638.866 283.124 638.866 278.812C638.866 274.499 640.007 271.124 642.288 268.687C644.585 266.249 647.765 265.031 651.827 265.031C653.093 265.031 654.327 265.195 655.53 265.523C656.733 265.851 657.944 266.359 659.163 267.046V271.57C658.022 270.554 656.874 269.82 655.718 269.367C654.577 268.913 653.28 268.687 651.827 268.687C649.124 268.687 647.046 269.562 645.593 271.312C644.14 273.062 643.413 275.562 643.413 278.812C643.413 282.046 644.14 284.546 645.593 286.312C647.062 288.062 649.14 288.937 651.827 288.937C653.327 288.937 654.671 288.71 655.858 288.257C657.046 287.788 658.147 287.07 659.163 286.101V290.578ZM689.468 276.632V278.742H670.788V278.882C670.663 282.46 671.343 285.031 672.827 286.593C674.327 288.156 676.437 288.937 679.155 288.937C680.53 288.937 681.968 288.718 683.468 288.281C684.968 287.843 686.569 287.179 688.272 286.288V290.578C686.632 291.249 685.046 291.749 683.515 292.078C681.999 292.421 680.53 292.593 679.108 292.593C675.03 292.593 671.843 291.374 669.546 288.937C667.249 286.484 666.101 283.109 666.101 278.812C666.101 274.624 667.226 271.281 669.476 268.781C671.726 266.281 674.726 265.031 678.476 265.031C681.819 265.031 684.452 266.163 686.374 268.429C688.312 270.695 689.343 273.429 689.468 276.632ZM685.155 275.367C684.968 273.554 684.304 271.992 683.163 270.679C682.038 269.351 680.413 268.687 678.288 268.687C676.21 268.687 674.499 269.374 673.155 270.749C671.812 272.124 671.077 273.671 670.952 275.39L685.155 275.367ZM933.569 265.687H940.882V274.148H933.569V265.687ZM933.569 283.382H940.882V291.913H933.569V283.382ZM497.093 321.757H508.132V344.562H516.687V347.913H495.265V344.562H503.819V325.109H497.093V321.757ZM503.819 311.562H508.132V316.999H503.819V311.562ZM798.944 311.492C796.866 315.054 795.312 318.609 794.28 322.156C793.265 325.687 792.757 329.249 792.757 332.843C792.757 336.421 793.265 339.984 794.28 343.531C795.312 347.078 796.866 350.648 798.944 354.242H795.194C792.835 350.523 791.077 346.906 789.921 343.39C788.765 339.859 788.187 336.343 788.187 332.843C788.187 329.359 788.765 325.851 789.921 322.32C791.077 318.788 792.835 315.179 795.194 311.492H798.944ZM814.155 343.953H821.515V317.515L812.702 321.757V317.21L821.468 313.038H826.202V343.953H833.468V347.913H814.155V343.953ZM851.187 312.406C854.921 312.406 857.741 313.929 859.647 316.976C861.569 320.023 862.53 324.531 862.53 330.499C862.53 336.468 861.569 340.976 859.647 344.023C857.741 347.07 854.921 348.593 851.187 348.593C847.452 348.593 844.632 347.07 842.726 344.023C840.819 340.976 839.866 336.468 839.866 330.499C839.866 324.531 840.819 320.023 842.726 316.976C844.632 313.929 847.452 312.406 851.187 312.406ZM851.187 344.843C853.405 344.843 855.054 343.663 856.132 341.304C857.226 338.945 857.772 335.343 857.772 330.499C857.772 327.921 857.616 325.593 857.304 323.515L846.147 340.976C847.319 343.554 848.999 344.843 851.187 344.843ZM851.187 316.156C848.983 316.156 847.335 317.335 846.241 319.695C845.163 322.054 844.624 325.656 844.624 330.499C844.624 332.703 844.772 334.765 845.069 336.687L855.991 319.273C854.804 317.195 853.202 316.156 851.187 316.156ZM880.108 312.406C883.843 312.406 886.663 313.929 888.569 316.976C890.491 320.023 891.452 324.531 891.452 330.499C891.452 336.468 890.491 340.976 888.569 344.023C886.663 347.07 883.843 348.593 880.108 348.593C876.374 348.593 873.554 347.07 871.647 344.023C869.741 340.976 868.788 336.468 868.788 330.499C868.788 324.531 869.741 320.023 871.647 316.976C873.554 313.929 876.374 312.406 880.108 312.406ZM880.108 344.843C882.327 344.843 883.976 343.663 885.054 341.304C886.147 338.945 886.694 335.343 886.694 330.499C886.694 327.921 886.538 325.593 886.226 323.515L875.069 340.976C876.241 343.554 877.921 344.843 880.108 344.843ZM880.108 316.156C877.905 316.156 876.257 317.335 875.163 319.695C874.085 322.054 873.546 325.656 873.546 330.499C873.546 332.703 873.694 334.765 873.991 336.687L884.913 319.273C883.726 317.195 882.124 316.156 880.108 316.156ZM902.749 311.492H906.499C908.858 315.179 910.616 318.788 911.772 322.32C912.929 325.851 913.507 329.359 913.507 332.843C913.507 336.359 912.929 339.882 911.772 343.413C910.616 346.945 908.858 350.554 906.499 354.242H902.749C904.827 350.617 906.374 347.031 907.39 343.484C908.421 339.937 908.937 336.39 908.937 332.843C908.937 329.281 908.421 325.726 907.39 322.179C906.374 318.632 904.827 315.07 902.749 311.492ZM933.569 321.687H940.882V330.148H933.569V321.687ZM933.569 339.382H940.882V347.913H933.569V339.382ZM654.335 367.492C652.257 371.054 650.702 374.609 649.671 378.156C648.655 381.687 648.147 385.249 648.147 388.843C648.147 392.421 648.655 395.984 649.671 399.531C650.702 403.078 652.257 406.648 654.335 410.242H650.585C648.226 406.523 646.468 402.906 645.312 399.39C644.155 395.859 643.577 392.343 643.577 388.843C643.577 385.359 644.155 381.851 645.312 378.32C646.468 374.788 648.226 371.179 650.585 367.492H654.335ZM1163.05 367.492H1166.8C1169.16 371.179 1170.91 374.788 1172.07 378.32C1173.23 381.851 1173.8 385.359 1173.8 388.843C1173.8 392.359 1173.23 395.882 1172.07 399.413C1170.91 402.945 1169.16 406.554 1166.8 410.242H1163.05C1165.12 406.617 1166.67 403.031 1167.69 399.484C1168.72 395.937 1169.23 392.39 1169.23 388.843C1169.23 385.281 1168.72 381.726 1167.69 378.179C1166.67 374.632 1165.12 371.07 1163.05 367.492ZM654.335 423.492C652.257 427.054 650.702 430.609 649.671 434.156C648.655 437.687 648.147 441.249 648.147 444.843C648.147 448.421 648.655 451.984 649.671 455.531C650.702 459.078 652.257 462.648 654.335 466.242H650.585C648.226 462.523 646.468 458.906 645.312 455.39C644.155 451.859 643.577 448.343 643.577 444.843C643.577 441.359 644.155 437.851 645.312 434.32C646.468 430.788 648.226 427.179 650.585 423.492H654.335ZM1278.73 423.492H1282.48C1284.84 427.179 1286.6 430.788 1287.76 434.32C1288.91 437.851 1289.49 441.359 1289.49 444.843C1289.49 448.359 1288.91 451.882 1287.76 455.413C1286.6 458.945 1284.84 462.554 1282.48 466.242H1278.73C1280.81 462.617 1282.36 459.031 1283.37 455.484C1284.41 451.937 1284.92 448.39 1284.92 444.843C1284.92 441.281 1284.41 437.726 1283.37 434.179C1282.36 430.632 1280.81 427.07 1278.73 423.492ZM361.929 506.421C361.929 508.359 362.28 509.82 362.983 510.804C363.702 511.788 364.757 512.281 366.147 512.281H371.187V515.913H365.726C363.147 515.913 361.147 515.093 359.726 513.453C358.319 511.796 357.616 509.453 357.616 506.421V482.679H350.702V479.304H361.929V506.421ZM388.437 492.687C386.249 492.687 384.593 493.538 383.468 495.242C382.343 496.945 381.78 499.468 381.78 502.812C381.78 506.14 382.343 508.663 383.468 510.382C384.593 512.085 386.249 512.937 388.437 512.937C390.64 512.937 392.304 512.085 393.429 510.382C394.554 508.663 395.116 506.14 395.116 502.812C395.116 499.468 394.554 496.945 393.429 495.242C392.304 493.538 390.64 492.687 388.437 492.687ZM388.437 489.031C392.077 489.031 394.858 490.21 396.78 492.57C398.718 494.929 399.687 498.343 399.687 502.812C399.687 507.296 398.726 510.718 396.804 513.078C394.882 515.421 392.093 516.593 388.437 516.593C384.796 516.593 382.015 515.421 380.093 513.078C378.171 510.718 377.21 507.296 377.21 502.812C377.21 498.343 378.171 494.929 380.093 492.57C382.015 490.21 384.796 489.031 388.437 489.031ZM402.921 489.663H407.187L411.757 510.874L415.507 497.328H419.187L422.983 510.874L427.554 489.663H431.819L425.679 515.913H421.554L417.358 501.523L413.187 515.913H409.062L402.921 489.663ZM460.53 520.367V524.351H431.843V520.367H460.53ZM469.554 512.609V525.898H465.218V489.663H469.554V493.015C470.272 491.718 471.226 490.734 472.413 490.062C473.616 489.374 474.999 489.031 476.562 489.031C479.733 489.031 482.218 490.257 484.015 492.71C485.827 495.163 486.733 498.562 486.733 502.906C486.733 507.171 485.827 510.523 484.015 512.96C482.202 515.382 479.718 516.593 476.562 516.593C474.968 516.593 473.569 516.257 472.366 515.585C471.179 514.898 470.241 513.906 469.554 512.609ZM482.21 502.812C482.21 499.468 481.679 496.945 480.616 495.242C479.569 493.538 478.007 492.687 475.929 492.687C473.835 492.687 472.249 493.546 471.171 495.265C470.093 496.968 469.554 499.484 469.554 502.812C469.554 506.124 470.093 508.64 471.171 510.359C472.249 512.078 473.835 512.937 475.929 512.937C478.007 512.937 479.569 512.085 480.616 510.382C481.679 508.679 482.21 506.156 482.21 502.812ZM516.757 495.078C515.835 494.359 514.897 493.835 513.944 493.507C512.991 493.179 511.944 493.015 510.804 493.015C508.116 493.015 506.062 493.859 504.64 495.546C503.218 497.234 502.507 499.671 502.507 502.859V515.913H498.171V489.663H502.507V494.796C503.226 492.937 504.327 491.515 505.812 490.531C507.312 489.531 509.085 489.031 511.132 489.031C512.194 489.031 513.187 489.163 514.108 489.429C515.03 489.695 515.913 490.109 516.757 490.671V495.078ZM526.015 489.757H537.054V512.562H545.608V515.913H524.187V512.562H532.741V493.109H526.015V489.757ZM532.741 479.562H537.054V484.999H532.741V479.562ZM572.397 514.578C571.241 515.249 570.046 515.749 568.812 516.078C567.593 516.421 566.343 516.593 565.062 516.593C560.999 516.593 557.819 515.374 555.522 512.937C553.241 510.499 552.101 507.124 552.101 502.812C552.101 498.499 553.241 495.124 555.522 492.687C557.819 490.249 560.999 489.031 565.062 489.031C566.327 489.031 567.562 489.195 568.765 489.523C569.968 489.851 571.179 490.359 572.397 491.046V495.57C571.257 494.554 570.108 493.82 568.952 493.367C567.812 492.913 566.515 492.687 565.062 492.687C562.358 492.687 560.28 493.562 558.827 495.312C557.374 497.062 556.647 499.562 556.647 502.812C556.647 506.046 557.374 508.546 558.827 510.312C560.296 512.062 562.374 512.937 565.062 512.937C566.562 512.937 567.905 512.71 569.093 512.257C570.28 511.788 571.382 511.07 572.397 510.101V514.578ZM602.702 500.632V502.742H584.022V502.882C583.897 506.46 584.577 509.031 586.062 510.593C587.562 512.156 589.671 512.937 592.39 512.937C593.765 512.937 595.202 512.718 596.702 512.281C598.202 511.843 599.804 511.179 601.507 510.288V514.578C599.866 515.249 598.28 515.749 596.749 516.078C595.233 516.421 593.765 516.593 592.343 516.593C588.265 516.593 585.077 515.374 582.78 512.937C580.483 510.484 579.335 507.109 579.335 502.812C579.335 498.624 580.46 495.281 582.71 492.781C584.96 490.281 587.96 489.031 591.71 489.031C595.054 489.031 597.687 490.163 599.608 492.429C601.546 494.695 602.577 497.429 602.702 500.632ZM598.39 499.367C598.202 497.554 597.538 495.992 596.397 494.679C595.272 493.351 593.647 492.687 591.522 492.687C589.444 492.687 587.733 493.374 586.39 494.749C585.046 496.124 584.312 497.671 584.187 499.39L598.39 499.367Z" fill="white"/>
<path d="M62.1865 119.953H69.5459V93.515L60.7334 97.7572V93.2103L69.499 89.0385H74.2334V119.953H81.499V123.913H62.1865V119.953ZM158.655 89.5775L156.546 97.8744H162.288L164.421 89.5775H168.171L166.038 97.8744H171.757V101.46H165.171L162.874 110.671H168.733V114.257H161.96L159.522 123.913H155.772L158.233 114.257H152.468L150.007 123.913H146.28L148.718 114.257H142.671V110.671H149.632L151.929 101.46H145.694V97.8744H152.796L154.905 89.5775H158.655ZM161.421 101.46H155.679L153.382 110.671H159.147L161.421 101.46ZM214.858 90.2103V97.6635H224.655V101.015H214.858V115.265C214.858 117.203 215.226 118.554 215.96 119.32C216.694 120.085 217.976 120.468 219.804 120.468H224.655V123.913H219.382C216.147 123.913 213.866 123.265 212.538 121.968C211.21 120.671 210.546 118.437 210.546 115.265V101.015H203.538V97.6635H210.546V90.2103H214.858ZM254.022 107.648V123.913H249.687V107.648C249.687 105.288 249.272 103.554 248.444 102.445C247.616 101.335 246.319 100.781 244.554 100.781C242.538 100.781 240.983 101.499 239.89 102.937C238.812 104.359 238.272 106.406 238.272 109.078V123.913H233.96V87.4447H238.272V101.601C239.038 100.101 240.077 98.9681 241.39 98.2025C242.702 97.4213 244.257 97.0306 246.054 97.0306C248.726 97.0306 250.718 97.9135 252.03 99.6791C253.358 101.429 254.022 104.085 254.022 107.648ZM284.562 108.632V110.742H265.882V110.882C265.757 114.46 266.437 117.031 267.921 118.593C269.421 120.156 271.53 120.937 274.249 120.937C275.624 120.937 277.062 120.718 278.562 120.281C280.062 119.843 281.663 119.179 283.366 118.288V122.578C281.726 123.249 280.14 123.749 278.608 124.078C277.093 124.421 275.624 124.593 274.202 124.593C270.124 124.593 266.937 123.374 264.64 120.937C262.343 118.484 261.194 115.109 261.194 110.812C261.194 106.624 262.319 103.281 264.569 100.781C266.819 98.2806 269.819 97.0306 273.569 97.0306C276.913 97.0306 279.546 98.1635 281.468 100.429C283.405 102.695 284.437 105.429 284.562 108.632ZM280.249 107.367C280.062 105.554 279.397 103.992 278.257 102.679C277.132 101.351 275.507 100.687 273.382 100.687C271.304 100.687 269.593 101.374 268.249 102.749C266.905 104.124 266.171 105.671 266.046 107.39L280.249 107.367ZM337.671 110.812C337.671 107.468 337.14 104.945 336.077 103.242C335.015 101.538 333.444 100.687 331.366 100.687C329.272 100.687 327.687 101.546 326.608 103.265C325.53 104.968 324.991 107.484 324.991 110.812C324.991 114.124 325.53 116.64 326.608 118.359C327.687 120.078 329.272 120.937 331.366 120.937C333.444 120.937 335.015 120.085 336.077 118.382C337.14 116.679 337.671 114.156 337.671 110.812ZM324.991 101.015C325.679 99.7338 326.624 98.7494 327.827 98.0619C329.046 97.3744 330.452 97.0306 332.046 97.0306C335.202 97.0306 337.687 98.2494 339.499 100.687C341.312 103.109 342.218 106.453 342.218 110.718C342.218 115.046 341.304 118.445 339.476 120.913C337.663 123.367 335.171 124.593 331.999 124.593C330.437 124.593 329.054 124.257 327.851 123.585C326.663 122.898 325.71 121.906 324.991 120.609V123.913H320.679V87.4447H324.991V101.015ZM371.327 108.632V110.742H352.647V110.882C352.522 114.46 353.202 117.031 354.687 118.593C356.187 120.156 358.296 120.937 361.015 120.937C362.39 120.937 363.827 120.718 365.327 120.281C366.827 119.843 368.429 119.179 370.132 118.288V122.578C368.491 123.249 366.905 123.749 365.374 124.078C363.858 124.421 362.39 124.593 360.968 124.593C356.89 124.593 353.702 123.374 351.405 120.937C349.108 118.484 347.96 115.109 347.96 110.812C347.96 106.624 349.085 103.281 351.335 100.781C353.585 98.2806 356.585 97.0306 360.335 97.0306C363.679 97.0306 366.312 98.1635 368.233 100.429C370.171 102.695 371.202 105.429 371.327 108.632ZM367.015 107.367C366.827 105.554 366.163 103.992 365.022 102.679C363.897 101.351 362.272 100.687 360.147 100.687C358.069 100.687 356.358 101.374 355.015 102.749C353.671 104.124 352.937 105.671 352.812 107.39L367.015 107.367ZM396.804 98.5775V102.796C395.569 102.078 394.327 101.538 393.077 101.179C391.827 100.82 390.554 100.64 389.257 100.64C387.304 100.64 385.843 100.96 384.874 101.601C383.921 102.226 383.444 103.187 383.444 104.484C383.444 105.656 383.804 106.531 384.522 107.109C385.241 107.687 387.03 108.249 389.89 108.796L391.624 109.124C393.765 109.531 395.382 110.343 396.476 111.562C397.585 112.781 398.14 114.367 398.14 116.32C398.14 118.913 397.218 120.945 395.374 122.413C393.53 123.867 390.968 124.593 387.687 124.593C386.39 124.593 385.03 124.453 383.608 124.171C382.187 123.906 380.647 123.499 378.991 122.953V118.499C380.601 119.328 382.14 119.953 383.608 120.374C385.077 120.781 386.468 120.984 387.78 120.984C389.687 120.984 391.163 120.601 392.21 119.835C393.257 119.054 393.78 117.968 393.78 116.578C393.78 114.578 391.866 113.195 388.038 112.429L387.851 112.382L386.233 112.054C383.749 111.57 381.937 110.757 380.796 109.617C379.655 108.46 379.085 106.89 379.085 104.906C379.085 102.39 379.937 100.453 381.64 99.0931C383.343 97.7181 385.772 97.0306 388.929 97.0306C390.335 97.0306 391.687 97.1635 392.983 97.4291C394.28 97.6791 395.554 98.0619 396.804 98.5775ZM417.312 90.2103V97.6635H427.108V101.015H417.312V115.265C417.312 117.203 417.679 118.554 418.413 119.32C419.147 120.085 420.429 120.468 422.257 120.468H427.108V123.913H421.835C418.601 123.913 416.319 123.265 414.991 121.968C413.663 120.671 412.999 118.437 412.999 115.265V101.015H405.991V97.6635H412.999V90.2103H417.312ZM485.632 122.578C484.476 123.249 483.28 123.749 482.046 124.078C480.827 124.421 479.577 124.593 478.296 124.593C474.233 124.593 471.054 123.374 468.757 120.937C466.476 118.499 465.335 115.124 465.335 110.812C465.335 106.499 466.476 103.124 468.757 100.687C471.054 98.2494 474.233 97.0306 478.296 97.0306C479.562 97.0306 480.796 97.1947 481.999 97.5228C483.202 97.851 484.413 98.3588 485.632 99.0463V103.57C484.491 102.554 483.343 101.82 482.187 101.367C481.046 100.913 479.749 100.687 478.296 100.687C475.593 100.687 473.515 101.562 472.062 103.312C470.608 105.062 469.882 107.562 469.882 110.812C469.882 114.046 470.608 116.546 472.062 118.312C473.53 120.062 475.608 120.937 478.296 120.937C479.796 120.937 481.14 120.71 482.327 120.257C483.515 119.788 484.616 119.07 485.632 118.101V122.578ZM506.538 114.421C506.538 116.359 506.89 117.82 507.593 118.804C508.312 119.788 509.366 120.281 510.757 120.281H515.796V123.913H510.335C507.757 123.913 505.757 123.093 504.335 121.453C502.929 119.796 502.226 117.453 502.226 114.421V90.6791H495.312V87.3041H506.538V114.421ZM533.046 100.687C530.858 100.687 529.202 101.538 528.077 103.242C526.952 104.945 526.39 107.468 526.39 110.812C526.39 114.14 526.952 116.663 528.077 118.382C529.202 120.085 530.858 120.937 533.046 120.937C535.249 120.937 536.913 120.085 538.038 118.382C539.163 116.663 539.726 114.14 539.726 110.812C539.726 107.468 539.163 104.945 538.038 103.242C536.913 101.538 535.249 100.687 533.046 100.687ZM533.046 97.0306C536.687 97.0306 539.468 98.2103 541.39 100.57C543.327 102.929 544.296 106.343 544.296 110.812C544.296 115.296 543.335 118.718 541.413 121.078C539.491 123.421 536.702 124.593 533.046 124.593C529.405 124.593 526.624 123.421 524.702 121.078C522.78 118.718 521.819 115.296 521.819 110.812C521.819 106.343 522.78 102.929 524.702 100.57C526.624 98.2103 529.405 97.0306 533.046 97.0306ZM552.101 113.976V97.7103H556.413V113.976C556.413 116.335 556.827 118.07 557.655 119.179C558.499 120.288 559.796 120.843 561.546 120.843C563.577 120.843 565.132 120.132 566.21 118.71C567.288 117.273 567.827 115.218 567.827 112.546V97.7103H572.163V123.913H567.827V119.976C567.062 121.492 566.015 122.64 564.687 123.421C563.374 124.203 561.835 124.593 560.069 124.593C557.382 124.593 555.382 123.718 554.069 121.968C552.757 120.203 552.101 117.538 552.101 113.976ZM596.562 101.015V87.4447H600.874V123.913H596.562V120.609C595.843 121.906 594.882 122.898 593.679 123.585C592.491 124.257 591.116 124.593 589.554 124.593C586.382 124.593 583.882 123.367 582.054 120.913C580.241 118.445 579.335 115.046 579.335 110.718C579.335 106.453 580.249 103.109 582.077 100.687C583.905 98.2494 586.397 97.0306 589.554 97.0306C591.132 97.0306 592.522 97.3744 593.726 98.0619C594.929 98.7338 595.874 99.7181 596.562 101.015ZM583.882 110.812C583.882 114.156 584.413 116.679 585.476 118.382C586.538 120.085 588.108 120.937 590.187 120.937C592.265 120.937 593.843 120.078 594.921 118.359C596.015 116.64 596.562 114.124 596.562 110.812C596.562 107.484 596.015 104.968 594.921 103.265C593.843 101.546 592.265 100.687 590.187 100.687C588.108 100.687 586.538 101.538 585.476 103.242C584.413 104.945 583.882 107.468 583.882 110.812ZM657.101 98.5775V102.796C655.866 102.078 654.624 101.538 653.374 101.179C652.124 100.82 650.851 100.64 649.554 100.64C647.601 100.64 646.14 100.96 645.171 101.601C644.218 102.226 643.741 103.187 643.741 104.484C643.741 105.656 644.101 106.531 644.819 107.109C645.538 107.687 647.327 108.249 650.187 108.796L651.921 109.124C654.062 109.531 655.679 110.343 656.772 111.562C657.882 112.781 658.437 114.367 658.437 116.32C658.437 118.913 657.515 120.945 655.671 122.413C653.827 123.867 651.265 124.593 647.983 124.593C646.687 124.593 645.327 124.453 643.905 124.171C642.483 123.906 640.944 123.499 639.288 122.953V118.499C640.897 119.328 642.437 119.953 643.905 120.374C645.374 120.781 646.765 120.984 648.077 120.984C649.983 120.984 651.46 120.601 652.507 119.835C653.554 119.054 654.077 117.968 654.077 116.578C654.077 114.578 652.163 113.195 648.335 112.429L648.147 112.382L646.53 112.054C644.046 111.57 642.233 110.757 641.093 109.617C639.952 108.46 639.382 106.89 639.382 104.906C639.382 102.39 640.233 100.453 641.937 99.0931C643.64 97.7181 646.069 97.0306 649.226 97.0306C650.632 97.0306 651.983 97.1635 653.28 97.4291C654.577 97.6791 655.851 98.0619 657.101 98.5775ZM677.608 90.2103V97.6635H687.405V101.015H677.608V115.265C677.608 117.203 677.976 118.554 678.71 119.32C679.444 120.085 680.726 120.468 682.554 120.468H687.405V123.913H682.132C678.897 123.913 676.616 123.265 675.288 121.968C673.96 120.671 673.296 118.437 673.296 115.265V101.015H666.288V97.6635H673.296V90.2103H677.608ZM706.577 100.687C704.39 100.687 702.733 101.538 701.608 103.242C700.483 104.945 699.921 107.468 699.921 110.812C699.921 114.14 700.483 116.663 701.608 118.382C702.733 120.085 704.39 120.937 706.577 120.937C708.78 120.937 710.444 120.085 711.569 118.382C712.694 116.663 713.257 114.14 713.257 110.812C713.257 107.468 712.694 104.945 711.569 103.242C710.444 101.538 708.78 100.687 706.577 100.687ZM706.577 97.0306C710.218 97.0306 712.999 98.2103 714.921 100.57C716.858 102.929 717.827 106.343 717.827 110.812C717.827 115.296 716.866 118.718 714.944 121.078C713.022 123.421 710.233 124.593 706.577 124.593C702.937 124.593 700.155 123.421 698.233 121.078C696.312 118.718 695.351 115.296 695.351 110.812C695.351 106.343 696.312 102.929 698.233 100.57C700.155 98.2103 702.937 97.0306 706.577 97.0306ZM748.132 103.078C747.21 102.359 746.272 101.835 745.319 101.507C744.366 101.179 743.319 101.015 742.179 101.015C739.491 101.015 737.437 101.859 736.015 103.546C734.593 105.234 733.882 107.671 733.882 110.859V123.913H729.546V97.6635H733.882V102.796C734.601 100.937 735.702 99.515 737.187 98.5306C738.687 97.5306 740.46 97.0306 742.507 97.0306C743.569 97.0306 744.562 97.1635 745.483 97.4291C746.405 97.6947 747.288 98.1088 748.132 98.6713V103.078ZM766.437 110.718H765.007C762.491 110.718 760.593 111.163 759.312 112.054C758.046 112.929 757.413 114.242 757.413 115.992C757.413 117.57 757.89 118.796 758.843 119.671C759.796 120.546 761.116 120.984 762.804 120.984C765.179 120.984 767.046 120.163 768.405 118.523C769.765 116.867 770.452 114.585 770.468 111.679V110.718H766.437ZM774.804 108.937V123.913H770.468V120.023C769.546 121.585 768.382 122.742 766.976 123.492C765.585 124.226 763.89 124.593 761.89 124.593C759.218 124.593 757.085 123.843 755.491 122.343C753.897 120.828 753.101 118.804 753.101 116.273C753.101 113.351 754.077 111.132 756.03 109.617C757.999 108.101 760.882 107.343 764.679 107.343H770.468V106.663C770.452 104.57 769.921 103.054 768.874 102.117C767.827 101.163 766.155 100.687 763.858 100.687C762.39 100.687 760.905 100.898 759.405 101.32C757.905 101.742 756.444 102.359 755.022 103.171V98.8588C756.616 98.2494 758.14 97.7963 759.593 97.4994C761.062 97.1869 762.483 97.0306 763.858 97.0306C766.03 97.0306 767.882 97.351 769.413 97.9916C770.96 98.6322 772.21 99.5931 773.163 100.874C773.757 101.656 774.179 102.624 774.429 103.781C774.679 104.921 774.804 106.64 774.804 108.937ZM799.015 110.578C799.015 107.343 798.483 104.89 797.421 103.218C796.374 101.531 794.843 100.687 792.827 100.687C790.718 100.687 789.108 101.531 787.999 103.218C786.89 104.89 786.335 107.343 786.335 110.578C786.335 113.812 786.89 116.281 787.999 117.984C789.124 119.671 790.749 120.515 792.874 120.515C794.858 120.515 796.374 119.663 797.421 117.96C798.483 116.257 799.015 113.796 799.015 110.578ZM803.327 122.226C803.327 126.163 802.397 129.148 800.538 131.179C798.679 133.21 795.944 134.226 792.335 134.226C791.147 134.226 789.905 134.117 788.608 133.898C787.312 133.679 786.015 133.359 784.718 132.937V128.671C786.249 129.39 787.64 129.921 788.89 130.265C790.14 130.609 791.288 130.781 792.335 130.781C794.663 130.781 796.358 130.148 797.421 128.882C798.483 127.617 799.015 125.609 799.015 122.859V122.671V119.742C798.327 121.21 797.39 122.304 796.202 123.023C795.015 123.742 793.569 124.101 791.866 124.101C788.804 124.101 786.358 122.874 784.53 120.421C782.702 117.968 781.788 114.687 781.788 110.578C781.788 106.453 782.702 103.163 784.53 100.71C786.358 98.2572 788.804 97.0306 791.866 97.0306C793.554 97.0306 794.983 97.3666 796.155 98.0385C797.327 98.7103 798.28 99.7494 799.015 101.156V97.7572H803.327V122.226ZM834.077 108.632V110.742H815.397V110.882C815.272 114.46 815.952 117.031 817.437 118.593C818.937 120.156 821.046 120.937 823.765 120.937C825.14 120.937 826.577 120.718 828.077 120.281C829.577 119.843 831.179 119.179 832.882 118.288V122.578C831.241 123.249 829.655 123.749 828.124 124.078C826.608 124.421 825.14 124.593 823.718 124.593C819.64 124.593 816.452 123.374 814.155 120.937C811.858 118.484 810.71 115.109 810.71 110.812C810.71 106.624 811.835 103.281 814.085 100.781C816.335 98.2806 819.335 97.0306 823.085 97.0306C826.429 97.0306 829.062 98.1635 830.983 100.429C832.921 102.695 833.952 105.429 834.077 108.632ZM829.765 107.367C829.577 105.554 828.913 103.992 827.772 102.679C826.647 101.351 825.022 100.687 822.897 100.687C820.819 100.687 819.108 101.374 817.765 102.749C816.421 104.124 815.687 105.671 815.562 107.39L829.765 107.367ZM64.6006 175.929H80.6787V179.913H59.4209V175.929C62.3428 172.851 64.8975 170.132 67.085 167.773C69.2725 165.413 70.7803 163.749 71.6084 162.781C73.1709 160.874 74.2256 159.335 74.7725 158.163C75.3193 156.976 75.5928 155.765 75.5928 154.531C75.5928 152.578 75.0146 151.046 73.8584 149.937C72.7178 148.828 71.1475 148.273 69.1475 148.273C67.7256 148.273 66.2334 148.531 64.6709 149.046C63.1084 149.562 61.4521 150.343 59.7021 151.39V146.609C61.3115 145.843 62.8896 145.265 64.4365 144.874C65.999 144.484 67.5381 144.288 69.0537 144.288C72.4756 144.288 75.2256 145.203 77.3037 147.031C79.3975 148.843 80.4443 151.226 80.4443 154.179C80.4443 155.679 80.0928 157.179 79.3896 158.679C78.7021 160.179 77.5771 161.835 76.0146 163.648C75.1396 164.663 73.8662 166.07 72.1943 167.867C70.5381 169.663 68.0068 172.351 64.6006 175.929ZM74.0459 217.187C76.3428 217.796 78.1006 218.882 79.3193 220.445C80.5381 221.992 81.1475 223.929 81.1475 226.257C81.1475 229.476 80.0615 232.007 77.8896 233.851C75.7334 235.679 72.7412 236.593 68.9131 236.593C67.3037 236.593 65.6631 236.445 63.9912 236.148C62.3193 235.851 60.6787 235.421 59.0693 234.859V230.148C60.6631 230.976 62.2334 231.593 63.7803 231.999C65.3271 232.406 66.8662 232.609 68.3975 232.609C70.9912 232.609 72.9834 232.023 74.374 230.851C75.7646 229.679 76.46 227.992 76.46 225.788C76.46 223.757 75.7646 222.148 74.374 220.96C72.9834 219.757 71.1006 219.156 68.7256 219.156H65.1162V215.265H68.7256C70.8975 215.265 72.5928 214.788 73.8115 213.835C75.0303 212.882 75.6396 211.554 75.6396 209.851C75.6396 208.054 75.0693 206.679 73.9287 205.726C72.8037 204.757 71.1943 204.273 69.1006 204.273C67.71 204.273 66.2725 204.429 64.7881 204.742C63.3037 205.054 61.749 205.523 60.124 206.148V201.788C62.0146 201.288 63.6943 200.913 65.1631 200.663C66.6475 200.413 67.96 200.288 69.1006 200.288C72.5068 200.288 75.2256 201.148 77.2568 202.867C79.3037 204.57 80.3271 206.835 80.3271 209.663C80.3271 211.585 79.7881 213.187 78.71 214.468C77.6475 215.749 76.0928 216.656 74.0459 217.187ZM73.085 261.234L62.0459 279.726H73.085V261.234ZM72.3115 256.921H77.7959V279.726H82.46V283.57H77.7959V291.913H73.085V283.57H58.249V279.093L72.3115 256.921ZM60.71 312.921H78.4287V316.906H65.0225V325.507C65.6943 325.257 66.3662 325.078 67.0381 324.968C67.7256 324.843 68.4131 324.781 69.1006 324.781C72.7256 324.781 75.6006 325.851 77.7256 327.992C79.8506 330.132 80.9131 333.031 80.9131 336.687C80.9131 340.374 79.7959 343.281 77.5615 345.406C75.3428 347.531 72.3037 348.593 68.4443 348.593C66.585 348.593 64.8818 348.468 63.335 348.218C61.8037 347.968 60.4287 347.593 59.21 347.093V342.288C60.6475 343.07 62.0928 343.656 63.5459 344.046C64.999 344.421 66.4834 344.609 67.999 344.609C70.6084 344.609 72.6162 343.921 74.0225 342.546C75.4443 341.171 76.1553 339.218 76.1553 336.687C76.1553 334.187 75.4209 332.242 73.9521 330.851C72.499 329.46 70.4678 328.765 67.8584 328.765C66.5928 328.765 65.3584 328.913 64.1553 329.21C62.9521 329.492 61.8037 329.921 60.71 330.499V312.921ZM79.085 369.695V374.054C78.1006 373.476 77.0537 373.038 75.9443 372.742C74.835 372.429 73.6787 372.273 72.4756 372.273C69.4756 372.273 67.2021 373.406 65.6553 375.671C64.1084 377.921 63.335 381.242 63.335 385.632C64.085 384.07 65.124 382.874 66.4521 382.046C67.7803 381.203 69.3037 380.781 71.0225 380.781C74.3975 380.781 77.0068 381.82 78.8506 383.898C80.71 385.96 81.6396 388.89 81.6396 392.687C81.6396 396.468 80.6865 399.398 78.7803 401.476C76.874 403.554 74.1943 404.593 70.7412 404.593C66.6787 404.593 63.7021 403.14 61.8115 400.234C59.9209 397.312 58.9756 392.718 58.9756 386.453C58.9756 380.546 60.1084 376.046 62.374 372.953C64.6553 369.843 67.9521 368.288 72.2646 368.288C73.4209 368.288 74.5771 368.413 75.7334 368.663C76.8896 368.898 78.0068 369.242 79.085 369.695ZM70.6475 384.484C68.6318 384.484 67.0459 385.21 65.8896 386.663C64.7334 388.117 64.1553 390.124 64.1553 392.687C64.1553 395.249 64.7334 397.257 65.8896 398.71C67.0459 400.163 68.6318 400.89 70.6475 400.89C72.7412 400.89 74.3193 400.203 75.3818 398.828C76.4443 397.437 76.9756 395.39 76.9756 392.687C76.9756 389.968 76.4443 387.921 75.3818 386.546C74.3193 385.171 72.7412 384.484 70.6475 384.484ZM59.1162 424.921H81.1475V426.937L68.6318 459.913H63.6865L75.874 428.906H59.1162V424.921ZM70.2959 499.296C68.1865 499.296 66.5537 499.89 65.3975 501.078C64.2568 502.249 63.6865 503.913 63.6865 506.07C63.6865 508.226 64.2646 509.906 65.4209 511.109C66.5928 512.296 68.2178 512.89 70.2959 512.89C72.4209 512.89 74.0537 512.304 75.1943 511.132C76.3506 509.945 76.9287 508.257 76.9287 506.07C76.9287 503.929 76.3428 502.265 75.1709 501.078C74.0146 499.89 72.3896 499.296 70.2959 499.296ZM66.1709 497.328C64.1553 496.812 62.5771 495.851 61.4365 494.445C60.3115 493.038 59.749 491.343 59.749 489.359C59.749 486.578 60.6943 484.374 62.585 482.749C64.4756 481.109 67.0459 480.288 70.2959 480.288C73.5615 480.288 76.1396 481.109 78.0303 482.749C79.9209 484.374 80.8662 486.578 80.8662 489.359C80.8662 491.343 80.2959 493.038 79.1553 494.445C78.0303 495.851 76.46 496.812 74.4443 497.328C76.7881 497.843 78.5771 498.882 79.8115 500.445C81.0615 502.007 81.6865 504.031 81.6865 506.515C81.6865 509.671 80.6787 512.14 78.6631 513.921C76.6475 515.703 73.8584 516.593 70.2959 516.593C66.7334 516.593 63.9443 515.71 61.9287 513.945C59.9287 512.163 58.9287 509.703 58.9287 506.562C58.9287 504.062 59.5459 502.031 60.7803 500.468C62.0303 498.89 63.8271 497.843 66.1709 497.328ZM64.46 489.804C64.46 491.679 64.96 493.109 65.96 494.093C66.96 495.078 68.4053 495.57 70.2959 495.57C72.2021 495.57 73.6553 495.078 74.6553 494.093C75.6553 493.109 76.1553 491.679 76.1553 489.804C76.1553 487.898 75.6553 486.445 74.6553 485.445C73.6709 484.445 72.2178 483.945 70.2959 483.945C68.4053 483.945 66.96 484.453 65.96 485.468C64.96 486.468 64.46 487.913 64.46 489.804Z" fill="#A6ACB9"/>
<path d="M162.733 157.015V143.445H167.046V179.913H162.733V176.609C162.015 177.906 161.054 178.898 159.851 179.585C158.663 180.257 157.288 180.593 155.726 180.593C152.554 180.593 150.054 179.367 148.226 176.913C146.413 174.445 145.507 171.046 145.507 166.718C145.507 162.453 146.421 159.109 148.249 156.687C150.077 154.249 152.569 153.031 155.726 153.031C157.304 153.031 158.694 153.374 159.897 154.062C161.101 154.734 162.046 155.718 162.733 157.015ZM150.054 166.812C150.054 170.156 150.585 172.679 151.647 174.382C152.71 176.085 154.28 176.937 156.358 176.937C158.437 176.937 160.015 176.078 161.093 174.359C162.187 172.64 162.733 170.124 162.733 166.812C162.733 163.484 162.187 160.968 161.093 159.265C160.015 157.546 158.437 156.687 156.358 156.687C154.28 156.687 152.71 157.538 151.647 159.242C150.585 160.945 150.054 163.468 150.054 166.812ZM197.796 164.632V166.742H179.116V166.882C178.991 170.46 179.671 173.031 181.155 174.593C182.655 176.156 184.765 176.937 187.483 176.937C188.858 176.937 190.296 176.718 191.796 176.281C193.296 175.843 194.897 175.179 196.601 174.288V178.578C194.96 179.249 193.374 179.749 191.843 180.078C190.327 180.421 188.858 180.593 187.437 180.593C183.358 180.593 180.171 179.374 177.874 176.937C175.577 174.484 174.429 171.109 174.429 166.812C174.429 162.624 175.554 159.281 177.804 156.781C180.054 154.281 183.054 153.031 186.804 153.031C190.147 153.031 192.78 154.163 194.702 156.429C196.64 158.695 197.671 161.429 197.796 164.632ZM193.483 163.367C193.296 161.554 192.632 159.992 191.491 158.679C190.366 157.351 188.741 156.687 186.616 156.687C184.538 156.687 182.827 157.374 181.483 158.749C180.14 160.124 179.405 161.671 179.28 163.39L193.483 163.367ZM225.382 143.445V147.031H220.483C218.937 147.031 217.858 147.351 217.249 147.992C216.655 148.617 216.358 149.734 216.358 151.343V153.663H225.382V157.015H216.358V179.913H212.046V157.015H205.038V153.663H212.046V151.835C212.046 148.96 212.702 146.843 214.015 145.484C215.343 144.124 217.405 143.445 220.202 143.445H225.382ZM258.312 265.663H262.577L267.147 286.874L270.897 273.328H274.577L278.374 286.874L282.944 265.663H287.21L281.069 291.913H276.944L272.749 277.523L268.577 291.913H264.452L258.312 265.663ZM311.866 275.648V291.913H307.53V275.648C307.53 273.288 307.116 271.554 306.288 270.445C305.46 269.335 304.163 268.781 302.397 268.781C300.382 268.781 298.827 269.499 297.733 270.937C296.655 272.359 296.116 274.406 296.116 277.078V291.913H291.804V255.445H296.116V269.601C296.882 268.101 297.921 266.968 299.233 266.203C300.546 265.421 302.101 265.031 303.897 265.031C306.569 265.031 308.562 265.913 309.874 267.679C311.202 269.429 311.866 272.085 311.866 275.648ZM323.562 265.757H334.601V288.562H343.155V291.913H321.733V288.562H330.288V269.109H323.562V265.757ZM330.288 255.562H334.601V260.999H330.288V255.562ZM361.929 282.421C361.929 284.359 362.28 285.82 362.983 286.804C363.702 287.788 364.757 288.281 366.147 288.281H371.187V291.913H365.726C363.147 291.913 361.147 291.093 359.726 289.453C358.319 287.796 357.616 285.453 357.616 282.421V258.679H350.702V255.304H361.929V282.421ZM400.249 276.632V278.742H381.569V278.882C381.444 282.46 382.124 285.031 383.608 286.593C385.108 288.156 387.218 288.937 389.937 288.937C391.312 288.937 392.749 288.718 394.249 288.281C395.749 287.843 397.351 287.179 399.054 286.288V290.578C397.413 291.249 395.827 291.749 394.296 292.078C392.78 292.421 391.312 292.593 389.89 292.593C385.812 292.593 382.624 291.374 380.327 288.937C378.03 286.484 376.882 283.109 376.882 278.812C376.882 274.624 378.007 271.281 380.257 268.781C382.507 266.281 385.507 265.031 389.257 265.031C392.601 265.031 395.233 266.163 397.155 268.429C399.093 270.695 400.124 273.429 400.249 276.632ZM395.937 275.367C395.749 273.554 395.085 271.992 393.944 270.679C392.819 269.351 391.194 268.687 389.069 268.687C386.991 268.687 385.28 269.374 383.937 270.749C382.593 272.124 381.858 273.671 381.733 275.39L395.937 275.367ZM398.913 311.445V315.031H394.015C392.468 315.031 391.39 315.351 390.78 315.992C390.187 316.617 389.89 317.734 389.89 319.343V321.663H398.913V325.015H389.89V347.913H385.577V325.015H378.569V321.663H385.577V319.835C385.577 316.96 386.233 314.843 387.546 313.484C388.874 312.124 390.937 311.445 393.733 311.445H398.913ZM417.358 324.687C415.171 324.687 413.515 325.538 412.39 327.242C411.265 328.945 410.702 331.468 410.702 334.812C410.702 338.14 411.265 340.663 412.39 342.382C413.515 344.085 415.171 344.937 417.358 344.937C419.562 344.937 421.226 344.085 422.351 342.382C423.476 340.663 424.038 338.14 424.038 334.812C424.038 331.468 423.476 328.945 422.351 327.242C421.226 325.538 419.562 324.687 417.358 324.687ZM417.358 321.031C420.999 321.031 423.78 322.21 425.702 324.57C427.64 326.929 428.608 330.343 428.608 334.812C428.608 339.296 427.647 342.718 425.726 345.078C423.804 347.421 421.015 348.593 417.358 348.593C413.718 348.593 410.937 347.421 409.015 345.078C407.093 342.718 406.132 339.296 406.132 334.812C406.132 330.343 407.093 326.929 409.015 324.57C410.937 322.21 413.718 321.031 417.358 321.031ZM458.913 327.078C457.991 326.359 457.054 325.835 456.101 325.507C455.147 325.179 454.101 325.015 452.96 325.015C450.272 325.015 448.218 325.859 446.796 327.546C445.374 329.234 444.663 331.671 444.663 334.859V347.913H440.327V321.663H444.663V326.796C445.382 324.937 446.483 323.515 447.968 322.531C449.468 321.531 451.241 321.031 453.288 321.031C454.351 321.031 455.343 321.163 456.265 321.429C457.187 321.695 458.069 322.109 458.913 322.671V327.078ZM554.937 321.757H565.976V344.562H574.53V347.913H553.108V344.562H561.663V325.109H554.937V321.757ZM561.663 311.562H565.976V316.999H561.663V311.562ZM601.085 331.648V347.913H596.749V331.648C596.749 329.288 596.335 327.554 595.507 326.445C594.679 325.335 593.382 324.781 591.616 324.781C589.601 324.781 588.046 325.499 586.952 326.937C585.874 328.359 585.335 330.406 585.335 333.078V347.913H581.022V321.663H585.335V325.601C586.101 324.101 587.14 322.968 588.452 322.203C589.765 321.421 591.319 321.031 593.116 321.031C595.788 321.031 597.78 321.913 599.093 323.679C600.421 325.429 601.085 328.085 601.085 331.648ZM169.694 495.078C168.772 494.359 167.835 493.835 166.882 493.507C165.929 493.179 164.882 493.015 163.741 493.015C161.054 493.015 158.999 493.859 157.577 495.546C156.155 497.234 155.444 499.671 155.444 502.859V515.913H151.108V489.663H155.444V494.796C156.163 492.937 157.265 491.515 158.749 490.531C160.249 489.531 162.022 489.031 164.069 489.031C165.132 489.031 166.124 489.163 167.046 489.429C167.968 489.695 168.851 490.109 169.694 490.671V495.078ZM197.796 500.632V502.742H179.116V502.882C178.991 506.46 179.671 509.031 181.155 510.593C182.655 512.156 184.765 512.937 187.483 512.937C188.858 512.937 190.296 512.718 191.796 512.281C193.296 511.843 194.897 511.179 196.601 510.288V514.578C194.96 515.249 193.374 515.749 191.843 516.078C190.327 516.421 188.858 516.593 187.437 516.593C183.358 516.593 180.171 515.374 177.874 512.937C175.577 510.484 174.429 507.109 174.429 502.812C174.429 498.624 175.554 495.281 177.804 492.781C180.054 490.281 183.054 489.031 186.804 489.031C190.147 489.031 192.78 490.163 194.702 492.429C196.64 494.695 197.671 497.429 197.796 500.632ZM193.483 499.367C193.296 497.554 192.632 495.992 191.491 494.679C190.366 493.351 188.741 492.687 186.616 492.687C184.538 492.687 182.827 493.374 181.483 494.749C180.14 496.124 179.405 497.671 179.28 499.39L193.483 499.367ZM214.858 482.21V489.663H224.655V493.015H214.858V507.265C214.858 509.203 215.226 510.554 215.96 511.32C216.694 512.085 217.976 512.468 219.804 512.468H224.655V515.913H219.382C216.147 515.913 213.866 515.265 212.538 513.968C211.21 512.671 210.546 510.437 210.546 507.265V493.015H203.538V489.663H210.546V482.21H214.858ZM233.96 505.976V489.71H238.272V505.976C238.272 508.335 238.687 510.07 239.515 511.179C240.358 512.288 241.655 512.843 243.405 512.843C245.437 512.843 246.991 512.132 248.069 510.71C249.147 509.273 249.687 507.218 249.687 504.546V489.71H254.022V515.913H249.687V511.976C248.921 513.492 247.874 514.64 246.546 515.421C245.233 516.203 243.694 516.593 241.929 516.593C239.241 516.593 237.241 515.718 235.929 513.968C234.616 512.203 233.96 509.538 233.96 505.976ZM285.382 495.078C284.46 494.359 283.522 493.835 282.569 493.507C281.616 493.179 280.569 493.015 279.429 493.015C276.741 493.015 274.687 493.859 273.265 495.546C271.843 497.234 271.132 499.671 271.132 502.859V515.913H266.796V489.663H271.132V494.796C271.851 492.937 272.952 491.515 274.437 490.531C275.937 489.531 277.71 489.031 279.757 489.031C280.819 489.031 281.812 489.163 282.733 489.429C283.655 489.695 284.538 490.109 285.382 490.671V495.078ZM311.866 499.648V515.913H307.53V499.648C307.53 497.288 307.116 495.554 306.288 494.445C305.46 493.335 304.163 492.781 302.397 492.781C300.382 492.781 298.827 493.499 297.733 494.937C296.655 496.359 296.116 498.406 296.116 501.078V515.913H291.804V489.663H296.116V493.601C296.882 492.101 297.921 490.968 299.233 490.203C300.546 489.421 302.101 489.031 303.897 489.031C306.569 489.031 308.562 489.913 309.874 491.679C311.202 493.429 311.866 496.085 311.866 499.648Z" fill="#C695C6"/>
<path d="M283.46 178.671C282.257 179.312 281.022 179.788 279.757 180.101C278.491 180.429 277.147 180.593 275.726 180.593C271.241 180.593 267.757 179.007 265.272 175.835C262.804 172.663 261.569 168.203 261.569 162.453C261.569 156.734 262.812 152.281 265.296 149.093C267.796 145.89 271.272 144.288 275.726 144.288C277.147 144.288 278.491 144.453 279.757 144.781C281.022 145.093 282.257 145.57 283.46 146.21V151.062C282.304 150.109 281.062 149.382 279.733 148.882C278.405 148.382 277.069 148.132 275.726 148.132C272.647 148.132 270.343 149.32 268.812 151.695C267.28 154.07 266.515 157.656 266.515 162.453C266.515 167.234 267.28 170.812 268.812 173.187C270.343 175.562 272.647 176.749 275.726 176.749C277.101 176.749 278.444 176.499 279.757 175.999C281.085 175.499 282.319 174.773 283.46 173.82V178.671ZM311.866 163.648V179.913H307.53V163.648C307.53 161.288 307.116 159.554 306.288 158.445C305.46 157.335 304.163 156.781 302.397 156.781C300.382 156.781 298.827 157.499 297.733 158.937C296.655 160.359 296.116 162.406 296.116 165.078V179.913H291.804V143.445H296.116V157.601C296.882 156.101 297.921 154.968 299.233 154.203C300.546 153.421 302.101 153.031 303.897 153.031C306.569 153.031 308.562 153.913 309.874 155.679C311.202 157.429 311.866 160.085 311.866 163.648ZM342.405 164.632V166.742H323.726V166.882C323.601 170.46 324.28 173.031 325.765 174.593C327.265 176.156 329.374 176.937 332.093 176.937C333.468 176.937 334.905 176.718 336.405 176.281C337.905 175.843 339.507 175.179 341.21 174.288V178.578C339.569 179.249 337.983 179.749 336.452 180.078C334.937 180.421 333.468 180.593 332.046 180.593C327.968 180.593 324.78 179.374 322.483 176.937C320.187 174.484 319.038 171.109 319.038 166.812C319.038 162.624 320.163 159.281 322.413 156.781C324.663 154.281 327.663 153.031 331.413 153.031C334.757 153.031 337.39 154.163 339.312 156.429C341.249 158.695 342.28 161.429 342.405 164.632ZM338.093 163.367C337.905 161.554 337.241 159.992 336.101 158.679C334.976 157.351 333.351 156.687 331.226 156.687C329.147 156.687 327.437 157.374 326.093 158.749C324.749 160.124 324.015 161.671 323.89 163.39L338.093 163.367ZM366.593 166.812C366.593 163.468 366.062 160.945 364.999 159.242C363.937 157.538 362.366 156.687 360.288 156.687C358.194 156.687 356.608 157.546 355.53 159.265C354.452 160.968 353.913 163.484 353.913 166.812C353.913 170.124 354.452 172.64 355.53 174.359C356.608 176.078 358.194 176.937 360.288 176.937C362.366 176.937 363.937 176.085 364.999 174.382C366.062 172.679 366.593 170.156 366.593 166.812ZM353.913 157.015C354.601 155.734 355.546 154.749 356.749 154.062C357.968 153.374 359.374 153.031 360.968 153.031C364.124 153.031 366.608 154.249 368.421 156.687C370.233 159.109 371.14 162.453 371.14 166.718C371.14 171.046 370.226 174.445 368.397 176.913C366.585 179.367 364.093 180.593 360.921 180.593C359.358 180.593 357.976 180.257 356.772 179.585C355.585 178.898 354.632 177.906 353.913 176.609V179.913H349.601V143.445H353.913V157.015ZM378.569 169.976V153.71H382.882V169.976C382.882 172.335 383.296 174.07 384.124 175.179C384.968 176.288 386.265 176.843 388.015 176.843C390.046 176.843 391.601 176.132 392.679 174.71C393.757 173.273 394.296 171.218 394.296 168.546V153.71H398.632V179.913H394.296V175.976C393.53 177.492 392.483 178.64 391.155 179.421C389.843 180.203 388.304 180.593 386.538 180.593C383.851 180.593 381.851 179.718 380.538 177.968C379.226 176.203 378.569 173.538 378.569 169.976ZM428.069 178.671C426.866 179.312 425.632 179.788 424.366 180.101C423.101 180.429 421.757 180.593 420.335 180.593C415.851 180.593 412.366 179.007 409.882 175.835C407.413 172.663 406.179 168.203 406.179 162.453C406.179 156.734 407.421 152.281 409.905 149.093C412.405 145.89 415.882 144.288 420.335 144.288C421.757 144.288 423.101 144.453 424.366 144.781C425.632 145.093 426.866 145.57 428.069 146.21V151.062C426.913 150.109 425.671 149.382 424.343 148.882C423.015 148.382 421.679 148.132 420.335 148.132C417.257 148.132 414.952 149.32 413.421 151.695C411.89 154.07 411.124 157.656 411.124 162.453C411.124 167.234 411.89 170.812 413.421 173.187C414.952 175.562 417.257 176.749 420.335 176.749C421.71 176.749 423.054 176.499 424.366 175.999C425.694 175.499 426.929 174.773 428.069 173.82V178.671ZM448.694 170.421C448.694 172.359 449.046 173.82 449.749 174.804C450.468 175.788 451.522 176.281 452.913 176.281H457.952V179.913H452.491C449.913 179.913 447.913 179.093 446.491 177.453C445.085 175.796 444.382 173.453 444.382 170.421V146.679H437.468V143.304H448.694V170.421ZM475.202 156.687C473.015 156.687 471.358 157.538 470.233 159.242C469.108 160.945 468.546 163.468 468.546 166.812C468.546 170.14 469.108 172.663 470.233 174.382C471.358 176.085 473.015 176.937 475.202 176.937C477.405 176.937 479.069 176.085 480.194 174.382C481.319 172.663 481.882 170.14 481.882 166.812C481.882 163.468 481.319 160.945 480.194 159.242C479.069 157.538 477.405 156.687 475.202 156.687ZM475.202 153.031C478.843 153.031 481.624 154.21 483.546 156.57C485.483 158.929 486.452 162.343 486.452 166.812C486.452 171.296 485.491 174.718 483.569 177.078C481.647 179.421 478.858 180.593 475.202 180.593C471.562 180.593 468.78 179.421 466.858 177.078C464.937 174.718 463.976 171.296 463.976 166.812C463.976 162.343 464.937 158.929 466.858 156.57C468.78 154.21 471.562 153.031 475.202 153.031ZM494.257 169.976V153.71H498.569V169.976C498.569 172.335 498.983 174.07 499.812 175.179C500.655 176.288 501.952 176.843 503.702 176.843C505.733 176.843 507.288 176.132 508.366 174.71C509.444 173.273 509.983 171.218 509.983 168.546V153.71H514.319V179.913H509.983V175.976C509.218 177.492 508.171 178.64 506.843 179.421C505.53 180.203 503.991 180.593 502.226 180.593C499.538 180.593 497.538 179.718 496.226 177.968C494.913 176.203 494.257 173.538 494.257 169.976ZM538.718 157.015V143.445H543.03V179.913H538.718V176.609C537.999 177.906 537.038 178.898 535.835 179.585C534.647 180.257 533.272 180.593 531.71 180.593C528.538 180.593 526.038 179.367 524.21 176.913C522.397 174.445 521.491 171.046 521.491 166.718C521.491 162.453 522.405 159.109 524.233 156.687C526.062 154.249 528.554 153.031 531.71 153.031C533.288 153.031 534.679 153.374 535.882 154.062C537.085 154.734 538.03 155.718 538.718 157.015ZM526.038 166.812C526.038 170.156 526.569 172.679 527.632 174.382C528.694 176.085 530.265 176.937 532.343 176.937C534.421 176.937 535.999 176.078 537.077 174.359C538.171 172.64 538.718 170.124 538.718 166.812C538.718 163.484 538.171 160.968 537.077 159.265C535.999 157.546 534.421 156.687 532.343 156.687C530.265 156.687 528.694 157.538 527.632 159.242C526.569 160.945 526.038 163.468 526.038 166.812Z" fill="#5FB4B4"/>
<path d="M549.593 224.195H574.366V228.156H549.593V224.195ZM549.593 213.156H574.366V217.117H549.593V213.156ZM723.124 280.195H747.897V284.156H723.124V280.195ZM723.124 269.156H747.897V273.117H723.124V269.156ZM752.046 280.195H776.819V284.156H752.046V280.195ZM752.046 269.156H776.819V273.117H752.046V269.156Z" fill="#F97B58"/>
<path d="M606.476 200.921H633.171V204.906H622.226V235.913H617.468V204.906H606.476V200.921ZM661.366 215.078C660.444 214.359 659.507 213.835 658.554 213.507C657.601 213.179 656.554 213.015 655.413 213.015C652.726 213.015 650.671 213.859 649.249 215.546C647.827 217.234 647.116 219.671 647.116 222.859V235.913H642.78V209.663H647.116V214.796C647.835 212.937 648.937 211.515 650.421 210.531C651.921 209.531 653.694 209.031 655.741 209.031C656.804 209.031 657.796 209.163 658.718 209.429C659.64 209.695 660.522 210.109 661.366 210.671V215.078ZM667.788 225.976V209.71H672.101V225.976C672.101 228.335 672.515 230.07 673.343 231.179C674.187 232.288 675.483 232.843 677.233 232.843C679.265 232.843 680.819 232.132 681.897 230.71C682.976 229.273 683.515 227.218 683.515 224.546V209.71H687.851V235.913H683.515V231.976C682.749 233.492 681.702 234.64 680.374 235.421C679.062 236.203 677.522 236.593 675.757 236.593C673.069 236.593 671.069 235.718 669.757 233.968C668.444 232.203 667.788 229.538 667.788 225.976ZM718.39 220.632V222.742H699.71V222.882C699.585 226.46 700.265 229.031 701.749 230.593C703.249 232.156 705.358 232.937 708.077 232.937C709.452 232.937 710.89 232.718 712.39 232.281C713.89 231.843 715.491 231.179 717.194 230.288V234.578C715.554 235.249 713.968 235.749 712.437 236.078C710.921 236.421 709.452 236.593 708.03 236.593C703.952 236.593 700.765 235.374 698.468 232.937C696.171 230.484 695.022 227.109 695.022 222.812C695.022 218.624 696.147 215.281 698.397 212.781C700.647 210.281 703.647 209.031 707.397 209.031C710.741 209.031 713.374 210.163 715.296 212.429C717.233 214.695 718.265 217.429 718.39 220.632ZM714.077 219.367C713.89 217.554 713.226 215.992 712.085 214.679C710.96 213.351 709.335 212.687 707.21 212.687C705.132 212.687 703.421 213.374 702.077 214.749C700.733 216.124 699.999 217.671 699.874 219.39L714.077 219.367ZM808.929 256.921H835.624V260.906H824.679V291.913H819.921V260.906H808.929V256.921ZM863.819 271.078C862.897 270.359 861.96 269.835 861.007 269.507C860.054 269.179 859.007 269.015 857.866 269.015C855.179 269.015 853.124 269.859 851.702 271.546C850.28 273.234 849.569 275.671 849.569 278.859V291.913H845.233V265.663H849.569V270.796C850.288 268.937 851.39 267.515 852.874 266.531C854.374 265.531 856.147 265.031 858.194 265.031C859.257 265.031 860.249 265.163 861.171 265.429C862.093 265.695 862.976 266.109 863.819 266.671V271.078ZM870.241 281.976V265.71H874.554V281.976C874.554 284.335 874.968 286.07 875.796 287.179C876.64 288.288 877.937 288.843 879.687 288.843C881.718 288.843 883.272 288.132 884.351 286.71C885.429 285.273 885.968 283.218 885.968 280.546V265.71H890.304V291.913H885.968V287.976C885.202 289.492 884.155 290.64 882.827 291.421C881.515 292.203 879.976 292.593 878.21 292.593C875.522 292.593 873.522 291.718 872.21 289.968C870.897 288.203 870.241 285.538 870.241 281.976ZM920.843 276.632V278.742H902.163V278.882C902.038 282.46 902.718 285.031 904.202 286.593C905.702 288.156 907.812 288.937 910.53 288.937C911.905 288.937 913.343 288.718 914.843 288.281C916.343 287.843 917.944 287.179 919.647 286.288V290.578C918.007 291.249 916.421 291.749 914.89 292.078C913.374 292.421 911.905 292.593 910.483 292.593C906.405 292.593 903.218 291.374 900.921 288.937C898.624 286.484 897.476 283.109 897.476 278.812C897.476 274.624 898.601 271.281 900.851 268.781C903.101 266.281 906.101 265.031 909.851 265.031C913.194 265.031 915.827 266.163 917.749 268.429C919.687 270.695 920.718 273.429 920.843 276.632ZM916.53 275.367C916.343 273.554 915.679 271.992 914.538 270.679C913.413 269.351 911.788 268.687 909.663 268.687C907.585 268.687 905.874 269.374 904.53 270.749C903.187 272.124 902.452 273.671 902.327 275.39L916.53 275.367Z" fill="#EC5F66"/>
<path d="M661.366 327.078C660.444 326.359 659.507 325.835 658.554 325.507C657.601 325.179 656.554 325.015 655.413 325.015C652.726 325.015 650.671 325.859 649.249 327.546C647.827 329.234 647.116 331.671 647.116 334.859V347.913H642.78V321.663H647.116V326.796C647.835 324.937 648.937 323.515 650.421 322.531C651.921 321.531 653.694 321.031 655.741 321.031C656.804 321.031 657.796 321.163 658.718 321.429C659.64 321.695 660.522 322.109 661.366 322.671V327.078ZM679.671 334.718H678.241C675.726 334.718 673.827 335.163 672.546 336.054C671.28 336.929 670.647 338.242 670.647 339.992C670.647 341.57 671.124 342.796 672.077 343.671C673.03 344.546 674.351 344.984 676.038 344.984C678.413 344.984 680.28 344.163 681.64 342.523C682.999 340.867 683.687 338.585 683.702 335.679V334.718H679.671ZM688.038 332.937V347.913H683.702V344.023C682.78 345.585 681.616 346.742 680.21 347.492C678.819 348.226 677.124 348.593 675.124 348.593C672.452 348.593 670.319 347.843 668.726 346.343C667.132 344.828 666.335 342.804 666.335 340.273C666.335 337.351 667.312 335.132 669.265 333.617C671.233 332.101 674.116 331.343 677.913 331.343H683.702V330.663C683.687 328.57 683.155 327.054 682.108 326.117C681.062 325.163 679.39 324.687 677.093 324.687C675.624 324.687 674.14 324.898 672.64 325.32C671.14 325.742 669.679 326.359 668.257 327.171V322.859C669.851 322.249 671.374 321.796 672.827 321.499C674.296 321.187 675.718 321.031 677.093 321.031C679.265 321.031 681.116 321.351 682.647 321.992C684.194 322.632 685.444 323.593 686.397 324.874C686.991 325.656 687.413 326.624 687.663 327.781C687.913 328.921 688.038 330.64 688.038 332.937ZM716.772 331.648V347.913H712.437V331.648C712.437 329.288 712.022 327.554 711.194 326.445C710.366 325.335 709.069 324.781 707.304 324.781C705.288 324.781 703.733 325.499 702.64 326.937C701.562 328.359 701.022 330.406 701.022 333.078V347.913H696.71V321.663H701.022V325.601C701.788 324.101 702.827 322.968 704.14 322.203C705.452 321.421 707.007 321.031 708.804 321.031C711.476 321.031 713.468 321.913 714.78 323.679C716.108 325.429 716.772 328.085 716.772 331.648ZM741.171 334.578C741.171 331.343 740.64 328.89 739.577 327.218C738.53 325.531 736.999 324.687 734.983 324.687C732.874 324.687 731.265 325.531 730.155 327.218C729.046 328.89 728.491 331.343 728.491 334.578C728.491 337.812 729.046 340.281 730.155 341.984C731.28 343.671 732.905 344.515 735.03 344.515C737.015 344.515 738.53 343.663 739.577 341.96C740.64 340.257 741.171 337.796 741.171 334.578ZM745.483 346.226C745.483 350.163 744.554 353.148 742.694 355.179C740.835 357.21 738.101 358.226 734.491 358.226C733.304 358.226 732.062 358.117 730.765 357.898C729.468 357.679 728.171 357.359 726.874 356.937V352.671C728.405 353.39 729.796 353.921 731.046 354.265C732.296 354.609 733.444 354.781 734.491 354.781C736.819 354.781 738.515 354.148 739.577 352.882C740.64 351.617 741.171 349.609 741.171 346.859V346.671V343.742C740.483 345.21 739.546 346.304 738.358 347.023C737.171 347.742 735.726 348.101 734.022 348.101C730.96 348.101 728.515 346.874 726.687 344.421C724.858 341.968 723.944 338.687 723.944 334.578C723.944 330.453 724.858 327.163 726.687 324.71C728.515 322.257 730.96 321.031 734.022 321.031C735.71 321.031 737.14 321.367 738.312 322.038C739.483 322.71 740.437 323.749 741.171 325.156V321.757H745.483V346.226ZM776.233 332.632V334.742H757.554V334.882C757.429 338.46 758.108 341.031 759.593 342.593C761.093 344.156 763.202 344.937 765.921 344.937C767.296 344.937 768.733 344.718 770.233 344.281C771.733 343.843 773.335 343.179 775.038 342.288V346.578C773.397 347.249 771.812 347.749 770.28 348.078C768.765 348.421 767.296 348.593 765.874 348.593C761.796 348.593 758.608 347.374 756.312 344.937C754.015 342.484 752.866 339.109 752.866 334.812C752.866 330.624 753.991 327.281 756.241 324.781C758.491 322.281 761.491 321.031 765.241 321.031C768.585 321.031 771.218 322.163 773.14 324.429C775.077 326.695 776.108 329.429 776.233 332.632ZM771.921 331.367C771.733 329.554 771.069 327.992 769.929 326.679C768.804 325.351 767.179 324.687 765.054 324.687C762.976 324.687 761.265 325.374 759.921 326.749C758.577 328.124 757.843 329.671 757.718 331.39L771.921 331.367ZM498.476 400.609V413.898H494.14V377.663H498.476V381.015C499.194 379.718 500.147 378.734 501.335 378.062C502.538 377.374 503.921 377.031 505.483 377.031C508.655 377.031 511.14 378.257 512.937 380.71C514.749 383.163 515.655 386.562 515.655 390.906C515.655 395.171 514.749 398.523 512.937 400.96C511.124 403.382 508.64 404.593 505.483 404.593C503.89 404.593 502.491 404.257 501.288 403.585C500.101 402.898 499.163 401.906 498.476 400.609ZM511.132 390.812C511.132 387.468 510.601 384.945 509.538 383.242C508.491 381.538 506.929 380.687 504.851 380.687C502.757 380.687 501.171 381.546 500.093 383.265C499.015 384.968 498.476 387.484 498.476 390.812C498.476 394.124 499.015 396.64 500.093 398.359C501.171 400.078 502.757 400.937 504.851 400.937C506.929 400.937 508.491 400.085 509.538 398.382C510.601 396.679 511.132 394.156 511.132 390.812ZM545.679 383.078C544.757 382.359 543.819 381.835 542.866 381.507C541.913 381.179 540.866 381.015 539.726 381.015C537.038 381.015 534.983 381.859 533.562 383.546C532.14 385.234 531.429 387.671 531.429 390.859V403.913H527.093V377.663H531.429V382.796C532.147 380.937 533.249 379.515 534.733 378.531C536.233 377.531 538.007 377.031 540.054 377.031C541.116 377.031 542.108 377.163 543.03 377.429C543.952 377.695 544.835 378.109 545.679 378.671V383.078ZM554.937 377.757H565.976V400.562H574.53V403.913H553.108V400.562H561.663V381.109H554.937V377.757ZM561.663 367.562H565.976V372.999H561.663V367.562ZM601.085 387.648V403.913H596.749V387.648C596.749 385.288 596.335 383.554 595.507 382.445C594.679 381.335 593.382 380.781 591.616 380.781C589.601 380.781 588.046 381.499 586.952 382.937C585.874 384.359 585.335 386.406 585.335 389.078V403.913H581.022V377.663H585.335V381.601C586.101 380.101 587.14 378.968 588.452 378.203C589.765 377.421 591.319 377.031 593.116 377.031C595.788 377.031 597.78 377.913 599.093 379.679C600.421 381.429 601.085 384.085 601.085 387.648ZM619.765 370.21V377.663H629.562V381.015H619.765V395.265C619.765 397.203 620.132 398.554 620.866 399.32C621.601 400.085 622.882 400.468 624.71 400.468H629.562V403.913H624.288C621.054 403.913 618.772 403.265 617.444 401.968C616.116 400.671 615.452 398.437 615.452 395.265V381.015H608.444V377.663H615.452V370.21H619.765ZM680.608 367.398V381.999H675.358V367.398H680.608ZM1143.36 367.398V381.999H1138.11V367.398H1143.36ZM498.476 456.609V469.898H494.14V433.663H498.476V437.015C499.194 435.718 500.147 434.734 501.335 434.062C502.538 433.374 503.921 433.031 505.483 433.031C508.655 433.031 511.14 434.257 512.937 436.71C514.749 439.163 515.655 442.562 515.655 446.906C515.655 451.171 514.749 454.523 512.937 456.96C511.124 459.382 508.64 460.593 505.483 460.593C503.89 460.593 502.491 460.257 501.288 459.585C500.101 458.898 499.163 457.906 498.476 456.609ZM511.132 446.812C511.132 443.468 510.601 440.945 509.538 439.242C508.491 437.538 506.929 436.687 504.851 436.687C502.757 436.687 501.171 437.546 500.093 439.265C499.015 440.968 498.476 443.484 498.476 446.812C498.476 450.124 499.015 452.64 500.093 454.359C501.171 456.078 502.757 456.937 504.851 456.937C506.929 456.937 508.491 456.085 509.538 454.382C510.601 452.679 511.132 450.156 511.132 446.812ZM545.679 439.078C544.757 438.359 543.819 437.835 542.866 437.507C541.913 437.179 540.866 437.015 539.726 437.015C537.038 437.015 534.983 437.859 533.562 439.546C532.14 441.234 531.429 443.671 531.429 446.859V459.913H527.093V433.663H531.429V438.796C532.147 436.937 533.249 435.515 534.733 434.531C536.233 433.531 538.007 433.031 540.054 433.031C541.116 433.031 542.108 433.163 543.03 433.429C543.952 433.695 544.835 434.109 545.679 434.671V439.078ZM554.937 433.757H565.976V456.562H574.53V459.913H553.108V456.562H561.663V437.109H554.937V433.757ZM561.663 423.562H565.976V428.999H561.663V423.562ZM601.085 443.648V459.913H596.749V443.648C596.749 441.288 596.335 439.554 595.507 438.445C594.679 437.335 593.382 436.781 591.616 436.781C589.601 436.781 588.046 437.499 586.952 438.937C585.874 440.359 585.335 442.406 585.335 445.078V459.913H581.022V433.663H585.335V437.601C586.101 436.101 587.14 434.968 588.452 434.203C589.765 433.421 591.319 433.031 593.116 433.031C595.788 433.031 597.78 433.913 599.093 435.679C600.421 437.429 601.085 440.085 601.085 443.648ZM619.765 426.21V433.663H629.562V437.015H619.765V451.265C619.765 453.203 620.132 454.554 620.866 455.32C621.601 456.085 622.882 456.468 624.71 456.468H629.562V459.913H624.288C621.054 459.913 618.772 459.265 617.444 457.968C616.116 456.671 615.452 454.437 615.452 451.265V437.015H608.444V433.663H615.452V426.21H619.765ZM680.608 423.398V437.999H675.358V423.398H680.608ZM1259.05 423.398V437.999H1253.8V423.398H1259.05Z" fill="#6699CC"/>
<path d="M718.015 401.031C716.749 402.203 715.319 403.093 713.726 403.703C712.147 404.296 710.437 404.593 708.593 404.593C704.155 404.593 700.702 403.007 698.233 399.835C695.765 396.648 694.53 392.187 694.53 386.453C694.53 380.734 695.78 376.281 698.28 373.093C700.78 369.89 704.257 368.288 708.71 368.288C710.179 368.288 711.585 368.499 712.929 368.921C714.272 369.328 715.569 369.953 716.819 370.796V375.648C715.554 374.445 714.257 373.562 712.929 372.999C711.601 372.421 710.194 372.132 708.71 372.132C705.632 372.132 703.319 373.328 701.772 375.718C700.241 378.093 699.476 381.671 699.476 386.453C699.476 391.312 700.218 394.913 701.702 397.257C703.202 399.585 705.499 400.749 708.593 400.749C709.64 400.749 710.554 400.632 711.335 400.398C712.132 400.148 712.851 399.765 713.491 399.249V389.851H708.405V385.96H718.015V401.031ZM728.468 377.757H739.507V400.562H748.062V403.913H726.64V400.562H735.194V381.109H728.468V377.757ZM735.194 367.562H739.507V372.999H735.194V367.562ZM764.374 370.21V377.663H774.171V381.015H764.374V395.265C764.374 397.203 764.741 398.554 765.476 399.32C766.21 400.085 767.491 400.468 769.319 400.468H774.171V403.913H768.897C765.663 403.913 763.382 403.265 762.054 401.968C760.726 400.671 760.062 398.437 760.062 395.265V381.015H753.054V377.663H760.062V370.21H764.374ZM782.116 368.921H786.874V382.328H799.835V368.921H804.593V403.913H799.835V386.312H786.874V403.913H782.116V368.921ZM812.397 393.976V377.71H816.71V393.976C816.71 396.335 817.124 398.07 817.952 399.179C818.796 400.288 820.093 400.843 821.843 400.843C823.874 400.843 825.429 400.132 826.507 398.71C827.585 397.273 828.124 395.218 828.124 392.546V377.71H832.46V403.913H828.124V399.976C827.358 401.492 826.312 402.64 824.983 403.421C823.671 404.203 822.132 404.593 820.366 404.593C817.679 404.593 815.679 403.718 814.366 401.968C813.054 400.203 812.397 397.538 812.397 393.976ZM858.265 390.812C858.265 387.468 857.733 384.945 856.671 383.242C855.608 381.538 854.038 380.687 851.96 380.687C849.866 380.687 848.28 381.546 847.202 383.265C846.124 384.968 845.585 387.484 845.585 390.812C845.585 394.124 846.124 396.64 847.202 398.359C848.28 400.078 849.866 400.937 851.96 400.937C854.038 400.937 855.608 400.085 856.671 398.382C857.733 396.679 858.265 394.156 858.265 390.812ZM845.585 381.015C846.272 379.734 847.218 378.749 848.421 378.062C849.64 377.374 851.046 377.031 852.64 377.031C855.796 377.031 858.28 378.249 860.093 380.687C861.905 383.109 862.812 386.453 862.812 390.718C862.812 395.046 861.897 398.445 860.069 400.913C858.257 403.367 855.765 404.593 852.593 404.593C851.03 404.593 849.647 404.257 848.444 403.585C847.257 402.898 846.304 401.906 845.585 400.609V403.913H841.272V367.445H845.585V381.015ZM919.507 367.445V371.031H914.608C913.062 371.031 911.983 371.351 911.374 371.992C910.78 372.617 910.483 373.734 910.483 375.343V377.663H919.507V381.015H910.483V403.913H906.171V381.015H899.163V377.663H906.171V375.835C906.171 372.96 906.827 370.843 908.14 369.484C909.468 368.124 911.53 367.445 914.327 367.445H919.507ZM950.585 383.078C949.663 382.359 948.726 381.835 947.772 381.507C946.819 381.179 945.772 381.015 944.632 381.015C941.944 381.015 939.89 381.859 938.468 383.546C937.046 385.234 936.335 387.671 936.335 390.859V403.913H931.999V377.663H936.335V382.796C937.054 380.937 938.155 379.515 939.64 378.531C941.14 377.531 942.913 377.031 944.96 377.031C946.022 377.031 947.015 377.163 947.937 377.429C948.858 377.695 949.741 378.109 950.585 378.671V383.078ZM959.843 377.757H970.882V400.562H979.437V403.913H958.015V400.562H966.569V381.109H959.843V377.757ZM966.569 367.562H970.882V372.999H966.569V367.562ZM1007.61 388.632V390.742H988.929V390.882C988.804 394.46 989.483 397.031 990.968 398.593C992.468 400.156 994.577 400.937 997.296 400.937C998.671 400.937 1000.11 400.718 1001.61 400.281C1003.11 399.843 1004.71 399.179 1006.41 398.288V402.578C1004.77 403.249 1003.19 403.749 1001.66 404.078C1000.14 404.421 998.671 404.593 997.249 404.593C993.171 404.593 989.983 403.374 987.687 400.937C985.39 398.484 984.241 395.109 984.241 390.812C984.241 386.624 985.366 383.281 987.616 380.781C989.866 378.281 992.866 377.031 996.616 377.031C999.96 377.031 1002.59 378.163 1004.51 380.429C1006.45 382.695 1007.48 385.429 1007.61 388.632ZM1003.3 387.367C1003.11 385.554 1002.44 383.992 1001.3 382.679C1000.18 381.351 998.554 380.687 996.429 380.687C994.351 380.687 992.64 381.374 991.296 382.749C989.952 384.124 989.218 385.671 989.093 387.39L1003.3 387.367ZM1034.91 387.648V403.913H1030.58V387.648C1030.58 385.288 1030.16 383.554 1029.33 382.445C1028.51 381.335 1027.21 380.781 1025.44 380.781C1023.43 380.781 1021.87 381.499 1020.78 382.937C1019.7 384.359 1019.16 386.406 1019.16 389.078V403.913H1014.85V377.663H1019.16V381.601C1019.93 380.101 1020.97 378.968 1022.28 378.203C1023.59 377.421 1025.15 377.031 1026.94 377.031C1029.62 377.031 1031.61 377.913 1032.92 379.679C1034.25 381.429 1034.91 384.085 1034.91 387.648ZM1059.31 381.015V367.445H1063.62V403.913H1059.31V400.609C1058.59 401.906 1057.63 402.898 1056.43 403.585C1055.24 404.257 1053.87 404.593 1052.3 404.593C1049.13 404.593 1046.63 403.367 1044.8 400.913C1042.99 398.445 1042.08 395.046 1042.08 390.718C1042.08 386.453 1043 383.109 1044.83 380.687C1046.66 378.249 1049.15 377.031 1052.3 377.031C1053.88 377.031 1055.27 377.374 1056.48 378.062C1057.68 378.734 1058.62 379.718 1059.31 381.015ZM1046.63 390.812C1046.63 394.156 1047.16 396.679 1048.23 398.382C1049.29 400.085 1050.86 400.937 1052.94 400.937C1055.01 400.937 1056.59 400.078 1057.67 398.359C1058.76 396.64 1059.31 394.124 1059.31 390.812C1059.31 387.484 1058.76 384.968 1057.67 383.265C1056.59 381.546 1055.01 380.687 1052.94 380.687C1050.86 380.687 1049.29 381.538 1048.23 383.242C1047.16 384.945 1046.63 387.468 1046.63 390.812ZM1084.98 394.421C1084.98 396.359 1085.33 397.82 1086.03 398.804C1086.75 399.788 1087.8 400.281 1089.19 400.281H1094.23V403.913H1088.77C1086.19 403.913 1084.19 403.093 1082.77 401.453C1081.37 399.796 1080.66 397.453 1080.66 394.421V370.679H1073.75V367.304H1084.98V394.421ZM1117.16 395.476C1116.44 397.304 1115.52 399.71 1114.41 402.695C1112.87 406.82 1111.83 409.335 1111.3 410.242C1110.58 411.46 1109.68 412.374 1108.6 412.984C1107.52 413.593 1106.26 413.898 1104.83 413.898H1101.36V410.288H1103.91C1105.18 410.288 1106.17 409.921 1106.89 409.187C1107.61 408.453 1108.52 406.554 1109.63 403.492L1099.48 377.663H1104.05L1111.83 398.195L1119.5 377.663H1124.07L1117.16 395.476Z" fill="#99C794"/>
<path d="M717.288 458.671C716.085 459.312 714.851 459.788 713.585 460.101C712.319 460.429 710.976 460.593 709.554 460.593C705.069 460.593 701.585 459.007 699.101 455.835C696.632 452.663 695.397 448.203 695.397 442.453C695.397 436.734 696.64 432.281 699.124 429.093C701.624 425.89 705.101 424.288 709.554 424.288C710.976 424.288 712.319 424.453 713.585 424.781C714.851 425.093 716.085 425.57 717.288 426.21V431.062C716.132 430.109 714.89 429.382 713.562 428.882C712.233 428.382 710.897 428.132 709.554 428.132C706.476 428.132 704.171 429.32 702.64 431.695C701.108 434.07 700.343 437.656 700.343 442.453C700.343 447.234 701.108 450.812 702.64 453.187C704.171 455.562 706.476 456.749 709.554 456.749C710.929 456.749 712.272 456.499 713.585 455.999C714.913 455.499 716.147 454.773 717.288 453.82V458.671ZM735.499 436.687C733.312 436.687 731.655 437.538 730.53 439.242C729.405 440.945 728.843 443.468 728.843 446.812C728.843 450.14 729.405 452.663 730.53 454.382C731.655 456.085 733.312 456.937 735.499 456.937C737.702 456.937 739.366 456.085 740.491 454.382C741.616 452.663 742.179 450.14 742.179 446.812C742.179 443.468 741.616 440.945 740.491 439.242C739.366 437.538 737.702 436.687 735.499 436.687ZM735.499 433.031C739.14 433.031 741.921 434.21 743.843 436.57C745.78 438.929 746.749 442.343 746.749 446.812C746.749 451.296 745.788 454.718 743.866 457.078C741.944 459.421 739.155 460.593 735.499 460.593C731.858 460.593 729.077 459.421 727.155 457.078C725.233 454.718 724.272 451.296 724.272 446.812C724.272 442.343 725.233 438.929 727.155 436.57C729.077 434.21 731.858 433.031 735.499 433.031ZM765.827 436.335C766.358 435.21 767.03 434.382 767.843 433.851C768.671 433.304 769.663 433.031 770.819 433.031C772.929 433.031 774.413 433.851 775.272 435.492C776.147 437.117 776.585 440.187 776.585 444.703V459.913H772.647V444.89C772.647 441.187 772.437 438.89 772.015 437.999C771.608 437.093 770.858 436.64 769.765 436.64C768.515 436.64 767.655 437.124 767.187 438.093C766.733 439.046 766.507 441.312 766.507 444.89V459.913H762.569V444.89C762.569 441.14 762.343 438.828 761.89 437.953C761.452 437.078 760.655 436.64 759.499 436.64C758.358 436.64 757.562 437.124 757.108 438.093C756.671 439.046 756.452 441.312 756.452 444.89V459.913H752.538V433.663H756.452V435.913C756.968 434.976 757.608 434.265 758.374 433.781C759.155 433.281 760.038 433.031 761.022 433.031C762.21 433.031 763.194 433.304 763.976 433.851C764.772 434.398 765.39 435.226 765.827 436.335ZM787.694 456.609V469.898H783.358V433.663H787.694V437.015C788.413 435.718 789.366 434.734 790.554 434.062C791.757 433.374 793.14 433.031 794.702 433.031C797.874 433.031 800.358 434.257 802.155 436.71C803.968 439.163 804.874 442.562 804.874 446.906C804.874 451.171 803.968 454.523 802.155 456.96C800.343 459.382 797.858 460.593 794.702 460.593C793.108 460.593 791.71 460.257 790.507 459.585C789.319 458.898 788.382 457.906 787.694 456.609ZM800.351 446.812C800.351 443.468 799.819 440.945 798.757 439.242C797.71 437.538 796.147 436.687 794.069 436.687C791.976 436.687 790.39 437.546 789.312 439.265C788.233 440.968 787.694 443.484 787.694 446.812C787.694 450.124 788.233 452.64 789.312 454.359C790.39 456.078 791.976 456.937 794.069 456.937C796.147 456.937 797.71 456.085 798.757 454.382C799.819 452.679 800.351 450.156 800.351 446.812ZM824.28 446.718H822.851C820.335 446.718 818.437 447.163 817.155 448.054C815.89 448.929 815.257 450.242 815.257 451.992C815.257 453.57 815.733 454.796 816.687 455.671C817.64 456.546 818.96 456.984 820.647 456.984C823.022 456.984 824.89 456.163 826.249 454.523C827.608 452.867 828.296 450.585 828.312 447.679V446.718H824.28ZM832.647 444.937V459.913H828.312V456.023C827.39 457.585 826.226 458.742 824.819 459.492C823.429 460.226 821.733 460.593 819.733 460.593C817.062 460.593 814.929 459.843 813.335 458.343C811.741 456.828 810.944 454.804 810.944 452.273C810.944 449.351 811.921 447.132 813.874 445.617C815.843 444.101 818.726 443.343 822.522 443.343H828.312V442.663C828.296 440.57 827.765 439.054 826.718 438.117C825.671 437.163 823.999 436.687 821.702 436.687C820.233 436.687 818.749 436.898 817.249 437.32C815.749 437.742 814.288 438.359 812.866 439.171V434.859C814.46 434.249 815.983 433.796 817.437 433.499C818.905 433.187 820.327 433.031 821.702 433.031C823.874 433.031 825.726 433.351 827.257 433.992C828.804 434.632 830.054 435.593 831.007 436.874C831.601 437.656 832.022 438.624 832.272 439.781C832.522 440.921 832.647 442.64 832.647 444.937ZM851.14 426.21V433.663H860.937V437.015H851.14V451.265C851.14 453.203 851.507 454.554 852.241 455.32C852.976 456.085 854.257 456.468 856.085 456.468H860.937V459.913H855.663C852.429 459.913 850.147 459.265 848.819 457.968C847.491 456.671 846.827 454.437 846.827 451.265V437.015H839.819V433.663H846.827V426.21H851.14ZM873.077 433.757H884.116V456.562H892.671V459.913H871.249V456.562H879.804V437.109H873.077V433.757ZM879.804 423.562H884.116V428.999H879.804V423.562ZM916.108 446.812C916.108 443.468 915.577 440.945 914.515 439.242C913.452 437.538 911.882 436.687 909.804 436.687C907.71 436.687 906.124 437.546 905.046 439.265C903.968 440.968 903.429 443.484 903.429 446.812C903.429 450.124 903.968 452.64 905.046 454.359C906.124 456.078 907.71 456.937 909.804 456.937C911.882 456.937 913.452 456.085 914.515 454.382C915.577 452.679 916.108 450.156 916.108 446.812ZM903.429 437.015C904.116 435.734 905.062 434.749 906.265 434.062C907.483 433.374 908.89 433.031 910.483 433.031C913.64 433.031 916.124 434.249 917.937 436.687C919.749 439.109 920.655 442.453 920.655 446.718C920.655 451.046 919.741 454.445 917.913 456.913C916.101 459.367 913.608 460.593 910.437 460.593C908.874 460.593 907.491 460.257 906.288 459.585C905.101 458.898 904.147 457.906 903.429 456.609V459.913H899.116V423.445H903.429V437.015ZM940.366 450.421C940.366 452.359 940.718 453.82 941.421 454.804C942.14 455.788 943.194 456.281 944.585 456.281H949.624V459.913H944.163C941.585 459.913 939.585 459.093 938.163 457.453C936.757 455.796 936.054 453.453 936.054 450.421V426.679H929.14V423.304H940.366V450.421ZM978.687 444.632V446.742H960.007V446.882C959.882 450.46 960.562 453.031 962.046 454.593C963.546 456.156 965.655 456.937 968.374 456.937C969.749 456.937 971.187 456.718 972.687 456.281C974.187 455.843 975.788 455.179 977.491 454.288V458.578C975.851 459.249 974.265 459.749 972.733 460.078C971.218 460.421 969.749 460.593 968.327 460.593C964.249 460.593 961.062 459.374 958.765 456.937C956.468 454.484 955.319 451.109 955.319 446.812C955.319 442.624 956.444 439.281 958.694 436.781C960.944 434.281 963.944 433.031 967.694 433.031C971.038 433.031 973.671 434.163 975.593 436.429C977.53 438.695 978.562 441.429 978.687 444.632ZM974.374 443.367C974.187 441.554 973.522 439.992 972.382 438.679C971.257 437.351 969.632 436.687 967.507 436.687C965.429 436.687 963.718 437.374 962.374 438.749C961.03 440.124 960.296 441.671 960.171 443.39L974.374 443.367ZM1010.28 433.663H1014.55L1019.12 454.874L1022.87 441.328H1026.55L1030.34 454.874L1034.91 433.663H1039.18L1033.04 459.913H1028.91L1024.72 445.523L1020.55 459.913H1016.42L1010.28 433.663ZM1046.61 433.757H1057.65V456.562H1066.2V459.913H1044.78V456.562H1053.33V437.109H1046.61V433.757ZM1053.33 423.562H1057.65V428.999H1053.33V423.562ZM1082.51 426.21V433.663H1092.31V437.015H1082.51V451.265C1082.51 453.203 1082.88 454.554 1083.62 455.32C1084.35 456.085 1085.63 456.468 1087.46 456.468H1092.31V459.913H1087.04C1083.8 459.913 1081.52 459.265 1080.19 457.968C1078.87 456.671 1078.2 454.437 1078.2 451.265V437.015H1071.19V433.663H1078.2V426.21H1082.51ZM1121.68 443.648V459.913H1117.34V443.648C1117.34 441.288 1116.93 439.554 1116.1 438.445C1115.27 437.335 1113.98 436.781 1112.21 436.781C1110.19 436.781 1108.64 437.499 1107.55 438.937C1106.47 440.359 1105.93 442.406 1105.93 445.078V459.913H1101.62V423.445H1105.93V437.601C1106.69 436.101 1107.73 434.968 1109.05 434.203C1110.36 433.421 1111.91 433.031 1113.71 433.031C1116.38 433.031 1118.37 433.913 1119.69 435.679C1121.01 437.429 1121.68 440.085 1121.68 443.648ZM1180.76 457.031C1179.5 458.203 1178.07 459.093 1176.48 459.703C1174.9 460.296 1173.19 460.593 1171.34 460.593C1166.91 460.593 1163.45 459.007 1160.98 455.835C1158.51 452.648 1157.28 448.187 1157.28 442.453C1157.28 436.734 1158.53 432.281 1161.03 429.093C1163.53 425.89 1167.01 424.288 1171.46 424.288C1172.93 424.288 1174.33 424.499 1175.68 424.921C1177.02 425.328 1178.32 425.953 1179.57 426.796V431.648C1178.3 430.445 1177.01 429.562 1175.68 428.999C1174.35 428.421 1172.94 428.132 1171.46 428.132C1168.38 428.132 1166.07 429.328 1164.52 431.718C1162.99 434.093 1162.23 437.671 1162.23 442.453C1162.23 447.312 1162.97 450.913 1164.45 453.257C1165.95 455.585 1168.25 456.749 1171.34 456.749C1172.39 456.749 1173.3 456.632 1174.08 456.398C1174.88 456.148 1175.6 455.765 1176.24 455.249V445.851H1171.16V441.96H1180.76V457.031ZM1191.22 433.757H1202.26V456.562H1210.81V459.913H1189.39V456.562H1197.94V437.109H1191.22V433.757ZM1197.94 423.562H1202.26V428.999H1197.94V423.562ZM1227.12 426.21V433.663H1236.92V437.015H1227.12V451.265C1227.12 453.203 1227.49 454.554 1228.23 455.32C1228.96 456.085 1230.24 456.468 1232.07 456.468H1236.92V459.913H1231.65C1228.41 459.913 1226.13 459.265 1224.8 457.968C1223.48 456.671 1222.81 454.437 1222.81 451.265V437.015H1215.8V433.663H1222.81V426.21H1227.12Z" fill="#96C391"/>
<circle cx="40.2917" cy="24.1572" r="13.3552" fill="#E44D4D"/>
<circle cx="87.0351" cy="24.1572" r="13.3552" fill="#F97D47"/>
<circle cx="133.777" cy="24.1572" r="13.3552" fill="#62D050"/>
</svg>
